M48
; DRILL file {KiCad 8.0.2} date 2024-07-15T13:40:55-0400
; FORMAT={-:-/ absolute / metric / decimal}
; #@! TF.CreationDate,2024-07-15T13:40:55-04:00
; #@! TF.GenerationSoftware,Kicad,Pcbnew,8.0.2
; #@! TF.FileFunction,MixedPlating,1,2
FMAT,2
METRIC
; #@! TA.AperFunction,Plated,PTH,ViaDrill
T1C0.800
; #@! TA.AperFunction,Plated,PTH,ComponentDrill
T2C0.800
; #@! TA.AperFunction,Plated,PTH,ComponentDrill
T3C0.900
; #@! TA.AperFunction,Plated,PTH,ComponentDrill
T4C1.000
; #@! TA.AperFunction,Plated,PTH,ComponentDrill
T5C1.300
; #@! TA.AperFunction,NonPlated,NPTH,ComponentDrill
T6C2.200
%
G90
G05
T1
X96.75Y-41.25
X96.75Y-44.5
X96.75Y-47.25
X96.75Y-50.0
X96.75Y-52.75
X104.75Y-93.25
X105.0Y-41.25
X105.0Y-44.5
X105.0Y-47.25
X105.0Y-50.0
X105.0Y-52.75
X105.0Y-99.5
X105.0Y-105.0
X105.0Y-110.25
X105.0Y-115.5
X105.0Y-121.75
X114.0Y-93.25
X114.0Y-99.5
X114.0Y-105.0
X114.25Y-110.25
X114.25Y-115.5
X114.25Y-121.75
X120.0Y-54.25
X120.0Y-57.25
X120.0Y-60.25
X120.0Y-63.25
X120.0Y-66.25
X153.75Y-42.75
X186.5Y-96.5
X186.5Y-114.25
T2
X114.95Y-40.21
X114.95Y-42.75
X117.49Y-40.21
X117.49Y-42.75
X120.03Y-40.21
X120.03Y-42.75
X122.57Y-40.21
X122.57Y-42.75
X124.307Y-107.442
X124.307Y-117.602
X124.307Y-120.757
X124.307Y-123.297
X129.12Y-107.442
X129.12Y-117.602
X129.12Y-120.757
X129.12Y-123.297
X129.25Y-40.05
X129.25Y-42.59
X129.25Y-45.13
X129.25Y-47.67
X129.25Y-50.21
X129.25Y-52.75
X129.25Y-55.29
X129.25Y-57.83
X129.25Y-60.37
X129.25Y-62.91
X129.25Y-65.45
X129.25Y-67.99
X129.25Y-70.53
X129.25Y-73.07
X129.25Y-75.61
X129.25Y-78.15
X129.25Y-80.69
X129.25Y-83.23
X129.25Y-85.77
X129.25Y-88.31
X129.25Y-90.85
X129.25Y-93.39
X129.25Y-95.93
X129.25Y-98.47
X134.057Y-107.552
X134.057Y-117.712
X134.057Y-120.762
X134.057Y-123.302
X141.419Y-128.074
X141.42Y-109.5
X144.25Y-113.92
X144.25Y-124.08
X144.49Y-40.05
X144.49Y-42.59
X144.49Y-45.13
X144.49Y-47.67
X144.49Y-50.21
X144.49Y-52.75
X144.49Y-55.29
X144.49Y-57.83
X144.49Y-60.37
X144.49Y-62.91
X144.49Y-65.45
X144.49Y-67.99
X144.49Y-70.53
X144.49Y-73.07
X144.49Y-75.61
X144.49Y-78.15
X144.49Y-80.69
X144.49Y-83.23
X144.49Y-85.77
X144.49Y-88.31
X144.49Y-90.85
X144.49Y-93.39
X144.49Y-95.93
X144.49Y-98.47
X148.75Y-40.0
X151.5Y-86.67
X151.5Y-96.83
X151.55Y-101.25
X151.55Y-103.79
X151.55Y-106.33
X151.55Y-119.2
X151.55Y-121.74
X151.55Y-124.28
X151.579Y-128.074
X151.58Y-109.5
X153.75Y-40.0
X162.238Y-80.788
X162.238Y-87.788
X162.523Y-60.073
X162.523Y-67.073
X162.523Y-74.073
X162.868Y-38.658
X162.868Y-45.908
X162.868Y-52.908
X167.728Y-84.288
X167.728Y-91.288
X167.773Y-63.823
X167.773Y-70.573
X167.773Y-77.323
X168.078Y-42.273
X168.118Y-49.408
X168.118Y-56.408
X172.398Y-80.788
X172.398Y-87.788
X172.683Y-60.073
X172.683Y-67.073
X172.683Y-74.073
X173.028Y-38.658
X173.028Y-45.908
X173.028Y-52.908
X177.888Y-84.288
X177.888Y-91.288
X177.933Y-63.823
X177.933Y-70.573
X177.933Y-77.323
X178.238Y-42.273
X178.278Y-49.408
X178.278Y-56.408
T3
X148.235Y-114.25
X153.315Y-114.25
X157.235Y-94.0
X162.315Y-94.0
T4
X101.2Y-88.9
X101.2Y-128.4
X118.2Y-88.9
X118.2Y-128.4
X159.3Y-98.0
X159.3Y-110.0
X159.3Y-116.0
X159.3Y-128.0
T5
X99.874Y-63.835
X99.874Y-68.915
X99.945Y-76.705
X99.945Y-81.785
X157.35Y-103.95
X157.35Y-121.95
X171.5Y-110.0
X171.5Y-128.0
X171.55Y-97.95
X171.55Y-115.95
X186.203Y-44.146
X186.203Y-49.226
X186.203Y-54.306
X186.203Y-64.896
X186.203Y-69.976
X186.203Y-75.056
X186.203Y-84.186
X186.203Y-89.266
X186.203Y-101.303
X186.203Y-106.383
X186.203Y-118.768
X186.203Y-123.848
T6
X95.5Y-37.5
X95.5Y-132.5
X190.5Y-37.5
X190.5Y-132.5
M30
