%TF.GenerationSoftware,KiCad,Pcbnew,8.0.2*%
%TF.CreationDate,2024-07-15T13:40:54-04:00*%
%TF.ProjectId,BancoDePruebas,42616e63-6f44-4655-9072-75656261732e,rev?*%
%TF.SameCoordinates,Original*%
%TF.FileFunction,Drillmap*%
%TF.FilePolarity,Positive*%
%FSLAX45Y45*%
G04 Gerber Fmt 4.5, Leading zero omitted, Abs format (unit mm)*
G04 Created by KiCad (PCBNEW 8.0.2) date 2024-07-15 13:40:54*
%MOMM*%
%LPD*%
G01*
G04 APERTURE LIST*
%ADD10C,0.050000*%
%ADD11C,0.200000*%
%ADD12C,0.100000*%
%ADD13C,0.130000*%
%ADD14C,0.220000*%
G04 APERTURE END LIST*
D10*
X9300000Y-3500000D02*
X19300000Y-3500000D01*
X19300000Y-13500000D01*
X9300000Y-13500000D01*
X9300000Y-3500000D01*
D11*
D12*
X9635000Y-4085000D02*
X9715000Y-4165000D01*
X9715000Y-4085000D02*
X9635000Y-4165000D01*
X9635000Y-4410000D02*
X9715000Y-4490000D01*
X9715000Y-4410000D02*
X9635000Y-4490000D01*
X9635000Y-4685000D02*
X9715000Y-4765000D01*
X9715000Y-4685000D02*
X9635000Y-4765000D01*
X9635000Y-4960000D02*
X9715000Y-5040000D01*
X9715000Y-4960000D02*
X9635000Y-5040000D01*
X9635000Y-5235000D02*
X9715000Y-5315000D01*
X9715000Y-5235000D02*
X9635000Y-5315000D01*
X10435000Y-9285000D02*
X10515000Y-9365000D01*
X10515000Y-9285000D02*
X10435000Y-9365000D01*
X10460000Y-4085000D02*
X10540000Y-4165000D01*
X10540000Y-4085000D02*
X10460000Y-4165000D01*
X10460000Y-4410000D02*
X10540000Y-4490000D01*
X10540000Y-4410000D02*
X10460000Y-4490000D01*
X10460000Y-4685000D02*
X10540000Y-4765000D01*
X10540000Y-4685000D02*
X10460000Y-4765000D01*
X10460000Y-4960000D02*
X10540000Y-5040000D01*
X10540000Y-4960000D02*
X10460000Y-5040000D01*
X10460000Y-5235000D02*
X10540000Y-5315000D01*
X10540000Y-5235000D02*
X10460000Y-5315000D01*
X10460000Y-9910000D02*
X10540000Y-9990000D01*
X10540000Y-9910000D02*
X10460000Y-9990000D01*
X10460000Y-10460000D02*
X10540000Y-10540000D01*
X10540000Y-10460000D02*
X10460000Y-10540000D01*
X10460000Y-10985000D02*
X10540000Y-11065000D01*
X10540000Y-10985000D02*
X10460000Y-11065000D01*
X10460000Y-11510000D02*
X10540000Y-11590000D01*
X10540000Y-11510000D02*
X10460000Y-11590000D01*
X10460000Y-12135000D02*
X10540000Y-12215000D01*
X10540000Y-12135000D02*
X10460000Y-12215000D01*
X11360000Y-9285000D02*
X11440000Y-9365000D01*
X11440000Y-9285000D02*
X11360000Y-9365000D01*
X11360000Y-9910000D02*
X11440000Y-9990000D01*
X11440000Y-9910000D02*
X11360000Y-9990000D01*
X11360000Y-10460000D02*
X11440000Y-10540000D01*
X11440000Y-10460000D02*
X11360000Y-10540000D01*
X11385000Y-10985000D02*
X11465000Y-11065000D01*
X11465000Y-10985000D02*
X11385000Y-11065000D01*
X11385000Y-11510000D02*
X11465000Y-11590000D01*
X11465000Y-11510000D02*
X11385000Y-11590000D01*
X11385000Y-12135000D02*
X11465000Y-12215000D01*
X11465000Y-12135000D02*
X11385000Y-12215000D01*
X11960000Y-5385000D02*
X12040000Y-5465000D01*
X12040000Y-5385000D02*
X11960000Y-5465000D01*
X11960000Y-5685000D02*
X12040000Y-5765000D01*
X12040000Y-5685000D02*
X11960000Y-5765000D01*
X11960000Y-5985000D02*
X12040000Y-6065000D01*
X12040000Y-5985000D02*
X11960000Y-6065000D01*
X11960000Y-6285000D02*
X12040000Y-6365000D01*
X12040000Y-6285000D02*
X11960000Y-6365000D01*
X11960000Y-6585000D02*
X12040000Y-6665000D01*
X12040000Y-6585000D02*
X11960000Y-6665000D01*
X15335000Y-4235000D02*
X15415000Y-4315000D01*
X15415000Y-4235000D02*
X15335000Y-4315000D01*
X18610000Y-9610000D02*
X18690000Y-9690000D01*
X18690000Y-9610000D02*
X18610000Y-9690000D01*
X18610000Y-11385000D02*
X18690000Y-11465000D01*
X18690000Y-11385000D02*
X18610000Y-11465000D01*
X11535000Y-4021000D02*
G75*
G02*
X11455000Y-4021000I-40000J0D01*
G01*
X11455000Y-4021000D02*
G75*
G02*
X11535000Y-4021000I40000J0D01*
G01*
X11535000Y-4275000D02*
G75*
G02*
X11455000Y-4275000I-40000J0D01*
G01*
X11455000Y-4275000D02*
G75*
G02*
X11535000Y-4275000I40000J0D01*
G01*
X11789000Y-4021000D02*
G75*
G02*
X11709000Y-4021000I-40000J0D01*
G01*
X11709000Y-4021000D02*
G75*
G02*
X11789000Y-4021000I40000J0D01*
G01*
X11789000Y-4275000D02*
G75*
G02*
X11709000Y-4275000I-40000J0D01*
G01*
X11709000Y-4275000D02*
G75*
G02*
X11789000Y-4275000I40000J0D01*
G01*
X12043000Y-4021000D02*
G75*
G02*
X11963000Y-4021000I-40000J0D01*
G01*
X11963000Y-4021000D02*
G75*
G02*
X12043000Y-4021000I40000J0D01*
G01*
X12043000Y-4275000D02*
G75*
G02*
X11963000Y-4275000I-40000J0D01*
G01*
X11963000Y-4275000D02*
G75*
G02*
X12043000Y-4275000I40000J0D01*
G01*
X12297000Y-4021000D02*
G75*
G02*
X12217000Y-4021000I-40000J0D01*
G01*
X12217000Y-4021000D02*
G75*
G02*
X12297000Y-4021000I40000J0D01*
G01*
X12297000Y-4275000D02*
G75*
G02*
X12217000Y-4275000I-40000J0D01*
G01*
X12217000Y-4275000D02*
G75*
G02*
X12297000Y-4275000I40000J0D01*
G01*
X12470703Y-10744180D02*
G75*
G02*
X12390703Y-10744180I-40000J0D01*
G01*
X12390703Y-10744180D02*
G75*
G02*
X12470703Y-10744180I40000J0D01*
G01*
X12470703Y-11760180D02*
G75*
G02*
X12390703Y-11760180I-40000J0D01*
G01*
X12390703Y-11760180D02*
G75*
G02*
X12470703Y-11760180I40000J0D01*
G01*
X12470703Y-12075680D02*
G75*
G02*
X12390703Y-12075680I-40000J0D01*
G01*
X12390703Y-12075680D02*
G75*
G02*
X12470703Y-12075680I40000J0D01*
G01*
X12470703Y-12329680D02*
G75*
G02*
X12390703Y-12329680I-40000J0D01*
G01*
X12390703Y-12329680D02*
G75*
G02*
X12470703Y-12329680I40000J0D01*
G01*
X12951953Y-10744180D02*
G75*
G02*
X12871953Y-10744180I-40000J0D01*
G01*
X12871953Y-10744180D02*
G75*
G02*
X12951953Y-10744180I40000J0D01*
G01*
X12951953Y-11760180D02*
G75*
G02*
X12871953Y-11760180I-40000J0D01*
G01*
X12871953Y-11760180D02*
G75*
G02*
X12951953Y-11760180I40000J0D01*
G01*
X12951953Y-12075680D02*
G75*
G02*
X12871953Y-12075680I-40000J0D01*
G01*
X12871953Y-12075680D02*
G75*
G02*
X12951953Y-12075680I40000J0D01*
G01*
X12951953Y-12329680D02*
G75*
G02*
X12871953Y-12329680I-40000J0D01*
G01*
X12871953Y-12329680D02*
G75*
G02*
X12951953Y-12329680I40000J0D01*
G01*
X12965000Y-4005000D02*
G75*
G02*
X12885000Y-4005000I-40000J0D01*
G01*
X12885000Y-4005000D02*
G75*
G02*
X12965000Y-4005000I40000J0D01*
G01*
X12965000Y-4259000D02*
G75*
G02*
X12885000Y-4259000I-40000J0D01*
G01*
X12885000Y-4259000D02*
G75*
G02*
X12965000Y-4259000I40000J0D01*
G01*
X12965000Y-4513000D02*
G75*
G02*
X12885000Y-4513000I-40000J0D01*
G01*
X12885000Y-4513000D02*
G75*
G02*
X12965000Y-4513000I40000J0D01*
G01*
X12965000Y-4767000D02*
G75*
G02*
X12885000Y-4767000I-40000J0D01*
G01*
X12885000Y-4767000D02*
G75*
G02*
X12965000Y-4767000I40000J0D01*
G01*
X12965000Y-5021000D02*
G75*
G02*
X12885000Y-5021000I-40000J0D01*
G01*
X12885000Y-5021000D02*
G75*
G02*
X12965000Y-5021000I40000J0D01*
G01*
X12965000Y-5275000D02*
G75*
G02*
X12885000Y-5275000I-40000J0D01*
G01*
X12885000Y-5275000D02*
G75*
G02*
X12965000Y-5275000I40000J0D01*
G01*
X12965000Y-5529000D02*
G75*
G02*
X12885000Y-5529000I-40000J0D01*
G01*
X12885000Y-5529000D02*
G75*
G02*
X12965000Y-5529000I40000J0D01*
G01*
X12965000Y-5783000D02*
G75*
G02*
X12885000Y-5783000I-40000J0D01*
G01*
X12885000Y-5783000D02*
G75*
G02*
X12965000Y-5783000I40000J0D01*
G01*
X12965000Y-6037000D02*
G75*
G02*
X12885000Y-6037000I-40000J0D01*
G01*
X12885000Y-6037000D02*
G75*
G02*
X12965000Y-6037000I40000J0D01*
G01*
X12965000Y-6291000D02*
G75*
G02*
X12885000Y-6291000I-40000J0D01*
G01*
X12885000Y-6291000D02*
G75*
G02*
X12965000Y-6291000I40000J0D01*
G01*
X12965000Y-6545000D02*
G75*
G02*
X12885000Y-6545000I-40000J0D01*
G01*
X12885000Y-6545000D02*
G75*
G02*
X12965000Y-6545000I40000J0D01*
G01*
X12965000Y-6799000D02*
G75*
G02*
X12885000Y-6799000I-40000J0D01*
G01*
X12885000Y-6799000D02*
G75*
G02*
X12965000Y-6799000I40000J0D01*
G01*
X12965000Y-7053000D02*
G75*
G02*
X12885000Y-7053000I-40000J0D01*
G01*
X12885000Y-7053000D02*
G75*
G02*
X12965000Y-7053000I40000J0D01*
G01*
X12965000Y-7307000D02*
G75*
G02*
X12885000Y-7307000I-40000J0D01*
G01*
X12885000Y-7307000D02*
G75*
G02*
X12965000Y-7307000I40000J0D01*
G01*
X12965000Y-7561000D02*
G75*
G02*
X12885000Y-7561000I-40000J0D01*
G01*
X12885000Y-7561000D02*
G75*
G02*
X12965000Y-7561000I40000J0D01*
G01*
X12965000Y-7815000D02*
G75*
G02*
X12885000Y-7815000I-40000J0D01*
G01*
X12885000Y-7815000D02*
G75*
G02*
X12965000Y-7815000I40000J0D01*
G01*
X12965000Y-8069000D02*
G75*
G02*
X12885000Y-8069000I-40000J0D01*
G01*
X12885000Y-8069000D02*
G75*
G02*
X12965000Y-8069000I40000J0D01*
G01*
X12965000Y-8323000D02*
G75*
G02*
X12885000Y-8323000I-40000J0D01*
G01*
X12885000Y-8323000D02*
G75*
G02*
X12965000Y-8323000I40000J0D01*
G01*
X12965000Y-8577000D02*
G75*
G02*
X12885000Y-8577000I-40000J0D01*
G01*
X12885000Y-8577000D02*
G75*
G02*
X12965000Y-8577000I40000J0D01*
G01*
X12965000Y-8831000D02*
G75*
G02*
X12885000Y-8831000I-40000J0D01*
G01*
X12885000Y-8831000D02*
G75*
G02*
X12965000Y-8831000I40000J0D01*
G01*
X12965000Y-9085000D02*
G75*
G02*
X12885000Y-9085000I-40000J0D01*
G01*
X12885000Y-9085000D02*
G75*
G02*
X12965000Y-9085000I40000J0D01*
G01*
X12965000Y-9339000D02*
G75*
G02*
X12885000Y-9339000I-40000J0D01*
G01*
X12885000Y-9339000D02*
G75*
G02*
X12965000Y-9339000I40000J0D01*
G01*
X12965000Y-9593000D02*
G75*
G02*
X12885000Y-9593000I-40000J0D01*
G01*
X12885000Y-9593000D02*
G75*
G02*
X12965000Y-9593000I40000J0D01*
G01*
X12965000Y-9847000D02*
G75*
G02*
X12885000Y-9847000I-40000J0D01*
G01*
X12885000Y-9847000D02*
G75*
G02*
X12965000Y-9847000I40000J0D01*
G01*
X13445703Y-10755180D02*
G75*
G02*
X13365703Y-10755180I-40000J0D01*
G01*
X13365703Y-10755180D02*
G75*
G02*
X13445703Y-10755180I40000J0D01*
G01*
X13445703Y-11771180D02*
G75*
G02*
X13365703Y-11771180I-40000J0D01*
G01*
X13365703Y-11771180D02*
G75*
G02*
X13445703Y-11771180I40000J0D01*
G01*
X13445703Y-12076180D02*
G75*
G02*
X13365703Y-12076180I-40000J0D01*
G01*
X13365703Y-12076180D02*
G75*
G02*
X13445703Y-12076180I40000J0D01*
G01*
X13445703Y-12330180D02*
G75*
G02*
X13365703Y-12330180I-40000J0D01*
G01*
X13365703Y-12330180D02*
G75*
G02*
X13445703Y-12330180I40000J0D01*
G01*
X14181882Y-12807431D02*
G75*
G02*
X14101882Y-12807431I-40000J0D01*
G01*
X14101882Y-12807431D02*
G75*
G02*
X14181882Y-12807431I40000J0D01*
G01*
X14182000Y-10950000D02*
G75*
G02*
X14102000Y-10950000I-40000J0D01*
G01*
X14102000Y-10950000D02*
G75*
G02*
X14182000Y-10950000I40000J0D01*
G01*
X14465000Y-11392000D02*
G75*
G02*
X14385000Y-11392000I-40000J0D01*
G01*
X14385000Y-11392000D02*
G75*
G02*
X14465000Y-11392000I40000J0D01*
G01*
X14465000Y-12408000D02*
G75*
G02*
X14385000Y-12408000I-40000J0D01*
G01*
X14385000Y-12408000D02*
G75*
G02*
X14465000Y-12408000I40000J0D01*
G01*
X14489000Y-4005000D02*
G75*
G02*
X14409000Y-4005000I-40000J0D01*
G01*
X14409000Y-4005000D02*
G75*
G02*
X14489000Y-4005000I40000J0D01*
G01*
X14489000Y-4259000D02*
G75*
G02*
X14409000Y-4259000I-40000J0D01*
G01*
X14409000Y-4259000D02*
G75*
G02*
X14489000Y-4259000I40000J0D01*
G01*
X14489000Y-4513000D02*
G75*
G02*
X14409000Y-4513000I-40000J0D01*
G01*
X14409000Y-4513000D02*
G75*
G02*
X14489000Y-4513000I40000J0D01*
G01*
X14489000Y-4767000D02*
G75*
G02*
X14409000Y-4767000I-40000J0D01*
G01*
X14409000Y-4767000D02*
G75*
G02*
X14489000Y-4767000I40000J0D01*
G01*
X14489000Y-5021000D02*
G75*
G02*
X14409000Y-5021000I-40000J0D01*
G01*
X14409000Y-5021000D02*
G75*
G02*
X14489000Y-5021000I40000J0D01*
G01*
X14489000Y-5275000D02*
G75*
G02*
X14409000Y-5275000I-40000J0D01*
G01*
X14409000Y-5275000D02*
G75*
G02*
X14489000Y-5275000I40000J0D01*
G01*
X14489000Y-5529000D02*
G75*
G02*
X14409000Y-5529000I-40000J0D01*
G01*
X14409000Y-5529000D02*
G75*
G02*
X14489000Y-5529000I40000J0D01*
G01*
X14489000Y-5783000D02*
G75*
G02*
X14409000Y-5783000I-40000J0D01*
G01*
X14409000Y-5783000D02*
G75*
G02*
X14489000Y-5783000I40000J0D01*
G01*
X14489000Y-6037000D02*
G75*
G02*
X14409000Y-6037000I-40000J0D01*
G01*
X14409000Y-6037000D02*
G75*
G02*
X14489000Y-6037000I40000J0D01*
G01*
X14489000Y-6291000D02*
G75*
G02*
X14409000Y-6291000I-40000J0D01*
G01*
X14409000Y-6291000D02*
G75*
G02*
X14489000Y-6291000I40000J0D01*
G01*
X14489000Y-6545000D02*
G75*
G02*
X14409000Y-6545000I-40000J0D01*
G01*
X14409000Y-6545000D02*
G75*
G02*
X14489000Y-6545000I40000J0D01*
G01*
X14489000Y-6799000D02*
G75*
G02*
X14409000Y-6799000I-40000J0D01*
G01*
X14409000Y-6799000D02*
G75*
G02*
X14489000Y-6799000I40000J0D01*
G01*
X14489000Y-7053000D02*
G75*
G02*
X14409000Y-7053000I-40000J0D01*
G01*
X14409000Y-7053000D02*
G75*
G02*
X14489000Y-7053000I40000J0D01*
G01*
X14489000Y-7307000D02*
G75*
G02*
X14409000Y-7307000I-40000J0D01*
G01*
X14409000Y-7307000D02*
G75*
G02*
X14489000Y-7307000I40000J0D01*
G01*
X14489000Y-7561000D02*
G75*
G02*
X14409000Y-7561000I-40000J0D01*
G01*
X14409000Y-7561000D02*
G75*
G02*
X14489000Y-7561000I40000J0D01*
G01*
X14489000Y-7815000D02*
G75*
G02*
X14409000Y-7815000I-40000J0D01*
G01*
X14409000Y-7815000D02*
G75*
G02*
X14489000Y-7815000I40000J0D01*
G01*
X14489000Y-8069000D02*
G75*
G02*
X14409000Y-8069000I-40000J0D01*
G01*
X14409000Y-8069000D02*
G75*
G02*
X14489000Y-8069000I40000J0D01*
G01*
X14489000Y-8323000D02*
G75*
G02*
X14409000Y-8323000I-40000J0D01*
G01*
X14409000Y-8323000D02*
G75*
G02*
X14489000Y-8323000I40000J0D01*
G01*
X14489000Y-8577000D02*
G75*
G02*
X14409000Y-8577000I-40000J0D01*
G01*
X14409000Y-8577000D02*
G75*
G02*
X14489000Y-8577000I40000J0D01*
G01*
X14489000Y-8831000D02*
G75*
G02*
X14409000Y-8831000I-40000J0D01*
G01*
X14409000Y-8831000D02*
G75*
G02*
X14489000Y-8831000I40000J0D01*
G01*
X14489000Y-9085000D02*
G75*
G02*
X14409000Y-9085000I-40000J0D01*
G01*
X14409000Y-9085000D02*
G75*
G02*
X14489000Y-9085000I40000J0D01*
G01*
X14489000Y-9339000D02*
G75*
G02*
X14409000Y-9339000I-40000J0D01*
G01*
X14409000Y-9339000D02*
G75*
G02*
X14489000Y-9339000I40000J0D01*
G01*
X14489000Y-9593000D02*
G75*
G02*
X14409000Y-9593000I-40000J0D01*
G01*
X14409000Y-9593000D02*
G75*
G02*
X14489000Y-9593000I40000J0D01*
G01*
X14489000Y-9847000D02*
G75*
G02*
X14409000Y-9847000I-40000J0D01*
G01*
X14409000Y-9847000D02*
G75*
G02*
X14489000Y-9847000I40000J0D01*
G01*
X14915000Y-4000000D02*
G75*
G02*
X14835000Y-4000000I-40000J0D01*
G01*
X14835000Y-4000000D02*
G75*
G02*
X14915000Y-4000000I40000J0D01*
G01*
X15190000Y-8667000D02*
G75*
G02*
X15110000Y-8667000I-40000J0D01*
G01*
X15110000Y-8667000D02*
G75*
G02*
X15190000Y-8667000I40000J0D01*
G01*
X15190000Y-9683000D02*
G75*
G02*
X15110000Y-9683000I-40000J0D01*
G01*
X15110000Y-9683000D02*
G75*
G02*
X15190000Y-9683000I40000J0D01*
G01*
X15195000Y-10125000D02*
G75*
G02*
X15115000Y-10125000I-40000J0D01*
G01*
X15115000Y-10125000D02*
G75*
G02*
X15195000Y-10125000I40000J0D01*
G01*
X15195000Y-10379000D02*
G75*
G02*
X15115000Y-10379000I-40000J0D01*
G01*
X15115000Y-10379000D02*
G75*
G02*
X15195000Y-10379000I40000J0D01*
G01*
X15195000Y-10633000D02*
G75*
G02*
X15115000Y-10633000I-40000J0D01*
G01*
X15115000Y-10633000D02*
G75*
G02*
X15195000Y-10633000I40000J0D01*
G01*
X15195000Y-11920000D02*
G75*
G02*
X15115000Y-11920000I-40000J0D01*
G01*
X15115000Y-11920000D02*
G75*
G02*
X15195000Y-11920000I40000J0D01*
G01*
X15195000Y-12174000D02*
G75*
G02*
X15115000Y-12174000I-40000J0D01*
G01*
X15115000Y-12174000D02*
G75*
G02*
X15195000Y-12174000I40000J0D01*
G01*
X15195000Y-12428000D02*
G75*
G02*
X15115000Y-12428000I-40000J0D01*
G01*
X15115000Y-12428000D02*
G75*
G02*
X15195000Y-12428000I40000J0D01*
G01*
X15197882Y-12807431D02*
G75*
G02*
X15117882Y-12807431I-40000J0D01*
G01*
X15117882Y-12807431D02*
G75*
G02*
X15197882Y-12807431I40000J0D01*
G01*
X15198000Y-10950000D02*
G75*
G02*
X15118000Y-10950000I-40000J0D01*
G01*
X15118000Y-10950000D02*
G75*
G02*
X15198000Y-10950000I40000J0D01*
G01*
X15415000Y-4000000D02*
G75*
G02*
X15335000Y-4000000I-40000J0D01*
G01*
X15335000Y-4000000D02*
G75*
G02*
X15415000Y-4000000I40000J0D01*
G01*
X16263771Y-8078757D02*
G75*
G02*
X16183771Y-8078757I-40000J0D01*
G01*
X16183771Y-8078757D02*
G75*
G02*
X16263771Y-8078757I40000J0D01*
G01*
X16263771Y-8778757D02*
G75*
G02*
X16183771Y-8778757I-40000J0D01*
G01*
X16183771Y-8778757D02*
G75*
G02*
X16263771Y-8778757I40000J0D01*
G01*
X16292271Y-6007257D02*
G75*
G02*
X16212271Y-6007257I-40000J0D01*
G01*
X16212271Y-6007257D02*
G75*
G02*
X16292271Y-6007257I40000J0D01*
G01*
X16292271Y-6707257D02*
G75*
G02*
X16212271Y-6707257I-40000J0D01*
G01*
X16212271Y-6707257D02*
G75*
G02*
X16292271Y-6707257I40000J0D01*
G01*
X16292271Y-7407257D02*
G75*
G02*
X16212271Y-7407257I-40000J0D01*
G01*
X16212271Y-7407257D02*
G75*
G02*
X16292271Y-7407257I40000J0D01*
G01*
X16326771Y-3865757D02*
G75*
G02*
X16246771Y-3865757I-40000J0D01*
G01*
X16246771Y-3865757D02*
G75*
G02*
X16326771Y-3865757I40000J0D01*
G01*
X16326771Y-4590757D02*
G75*
G02*
X16246771Y-4590757I-40000J0D01*
G01*
X16246771Y-4590757D02*
G75*
G02*
X16326771Y-4590757I40000J0D01*
G01*
X16326771Y-5290757D02*
G75*
G02*
X16246771Y-5290757I-40000J0D01*
G01*
X16246771Y-5290757D02*
G75*
G02*
X16326771Y-5290757I40000J0D01*
G01*
X16812771Y-8428757D02*
G75*
G02*
X16732771Y-8428757I-40000J0D01*
G01*
X16732771Y-8428757D02*
G75*
G02*
X16812771Y-8428757I40000J0D01*
G01*
X16812771Y-9128757D02*
G75*
G02*
X16732771Y-9128757I-40000J0D01*
G01*
X16732771Y-9128757D02*
G75*
G02*
X16812771Y-9128757I40000J0D01*
G01*
X16817271Y-6382257D02*
G75*
G02*
X16737271Y-6382257I-40000J0D01*
G01*
X16737271Y-6382257D02*
G75*
G02*
X16817271Y-6382257I40000J0D01*
G01*
X16817271Y-7057257D02*
G75*
G02*
X16737271Y-7057257I-40000J0D01*
G01*
X16737271Y-7057257D02*
G75*
G02*
X16817271Y-7057257I40000J0D01*
G01*
X16817271Y-7732257D02*
G75*
G02*
X16737271Y-7732257I-40000J0D01*
G01*
X16737271Y-7732257D02*
G75*
G02*
X16817271Y-7732257I40000J0D01*
G01*
X16847771Y-4227257D02*
G75*
G02*
X16767771Y-4227257I-40000J0D01*
G01*
X16767771Y-4227257D02*
G75*
G02*
X16847771Y-4227257I40000J0D01*
G01*
X16851771Y-4940757D02*
G75*
G02*
X16771771Y-4940757I-40000J0D01*
G01*
X16771771Y-4940757D02*
G75*
G02*
X16851771Y-4940757I40000J0D01*
G01*
X16851771Y-5640757D02*
G75*
G02*
X16771771Y-5640757I-40000J0D01*
G01*
X16771771Y-5640757D02*
G75*
G02*
X16851771Y-5640757I40000J0D01*
G01*
X17279771Y-8078757D02*
G75*
G02*
X17199771Y-8078757I-40000J0D01*
G01*
X17199771Y-8078757D02*
G75*
G02*
X17279771Y-8078757I40000J0D01*
G01*
X17279771Y-8778757D02*
G75*
G02*
X17199771Y-8778757I-40000J0D01*
G01*
X17199771Y-8778757D02*
G75*
G02*
X17279771Y-8778757I40000J0D01*
G01*
X17308271Y-6007257D02*
G75*
G02*
X17228271Y-6007257I-40000J0D01*
G01*
X17228271Y-6007257D02*
G75*
G02*
X17308271Y-6007257I40000J0D01*
G01*
X17308271Y-6707257D02*
G75*
G02*
X17228271Y-6707257I-40000J0D01*
G01*
X17228271Y-6707257D02*
G75*
G02*
X17308271Y-6707257I40000J0D01*
G01*
X17308271Y-7407257D02*
G75*
G02*
X17228271Y-7407257I-40000J0D01*
G01*
X17228271Y-7407257D02*
G75*
G02*
X17308271Y-7407257I40000J0D01*
G01*
X17342771Y-3865757D02*
G75*
G02*
X17262771Y-3865757I-40000J0D01*
G01*
X17262771Y-3865757D02*
G75*
G02*
X17342771Y-3865757I40000J0D01*
G01*
X17342771Y-4590757D02*
G75*
G02*
X17262771Y-4590757I-40000J0D01*
G01*
X17262771Y-4590757D02*
G75*
G02*
X17342771Y-4590757I40000J0D01*
G01*
X17342771Y-5290757D02*
G75*
G02*
X17262771Y-5290757I-40000J0D01*
G01*
X17262771Y-5290757D02*
G75*
G02*
X17342771Y-5290757I40000J0D01*
G01*
X17828771Y-8428757D02*
G75*
G02*
X17748771Y-8428757I-40000J0D01*
G01*
X17748771Y-8428757D02*
G75*
G02*
X17828771Y-8428757I40000J0D01*
G01*
X17828771Y-9128757D02*
G75*
G02*
X17748771Y-9128757I-40000J0D01*
G01*
X17748771Y-9128757D02*
G75*
G02*
X17828771Y-9128757I40000J0D01*
G01*
X17833271Y-6382257D02*
G75*
G02*
X17753271Y-6382257I-40000J0D01*
G01*
X17753271Y-6382257D02*
G75*
G02*
X17833271Y-6382257I40000J0D01*
G01*
X17833271Y-7057257D02*
G75*
G02*
X17753271Y-7057257I-40000J0D01*
G01*
X17753271Y-7057257D02*
G75*
G02*
X17833271Y-7057257I40000J0D01*
G01*
X17833271Y-7732257D02*
G75*
G02*
X17753271Y-7732257I-40000J0D01*
G01*
X17753271Y-7732257D02*
G75*
G02*
X17833271Y-7732257I40000J0D01*
G01*
X17863771Y-4227257D02*
G75*
G02*
X17783771Y-4227257I-40000J0D01*
G01*
X17783771Y-4227257D02*
G75*
G02*
X17863771Y-4227257I40000J0D01*
G01*
X17867771Y-4940757D02*
G75*
G02*
X17787771Y-4940757I-40000J0D01*
G01*
X17787771Y-4940757D02*
G75*
G02*
X17867771Y-4940757I40000J0D01*
G01*
X17867771Y-5640757D02*
G75*
G02*
X17787771Y-5640757I-40000J0D01*
G01*
X17787771Y-5640757D02*
G75*
G02*
X17867771Y-5640757I40000J0D01*
G01*
X14823500Y-11380000D02*
X14823500Y-11470000D01*
X14778500Y-11425000D02*
X14868500Y-11425000D01*
X15331500Y-11380000D02*
X15331500Y-11470000D01*
X15286500Y-11425000D02*
X15376500Y-11425000D01*
X15723500Y-9355000D02*
X15723500Y-9445000D01*
X15678500Y-9400000D02*
X15768500Y-9400000D01*
X16231500Y-9355000D02*
X16231500Y-9445000D01*
X16186500Y-9400000D02*
X16276500Y-9400000D01*
X10155356Y-8925356D02*
X10155356Y-8854644D01*
X10084644Y-8854644D01*
X10084644Y-8925356D01*
X10155356Y-8925356D01*
X10155356Y-12875356D02*
X10155356Y-12804644D01*
X10084644Y-12804644D01*
X10084644Y-12875356D01*
X10155356Y-12875356D01*
X11855356Y-8925356D02*
X11855356Y-8854644D01*
X11784644Y-8854644D01*
X11784644Y-8925356D01*
X11855356Y-8925356D01*
X11855356Y-12875356D02*
X11855356Y-12804644D01*
X11784644Y-12804644D01*
X11784644Y-12875356D01*
X11855356Y-12875356D01*
X15965356Y-9835356D02*
X15965356Y-9764644D01*
X15894644Y-9764644D01*
X15894644Y-9835356D01*
X15965356Y-9835356D01*
X15965356Y-11035356D02*
X15965356Y-10964644D01*
X15894644Y-10964644D01*
X15894644Y-11035356D01*
X15965356Y-11035356D01*
X15965356Y-11635356D02*
X15965356Y-11564644D01*
X15894644Y-11564644D01*
X15894644Y-11635356D01*
X15965356Y-11635356D01*
X15965356Y-12835356D02*
X15965356Y-12764644D01*
X15894644Y-12764644D01*
X15894644Y-12835356D01*
X15965356Y-12835356D01*
D13*
X9987356Y-6448480D02*
X10052356Y-6383480D01*
X9987356Y-6318480D01*
X9922356Y-6383480D01*
X9987356Y-6448480D01*
X9987356Y-6956480D02*
X10052356Y-6891480D01*
X9987356Y-6826480D01*
X9922356Y-6891480D01*
X9987356Y-6956480D01*
X9994500Y-7735500D02*
X10059500Y-7670500D01*
X9994500Y-7605500D01*
X9929500Y-7670500D01*
X9994500Y-7735500D01*
X9994500Y-8243500D02*
X10059500Y-8178500D01*
X9994500Y-8113500D01*
X9929500Y-8178500D01*
X9994500Y-8243500D01*
X15735000Y-10460000D02*
X15800000Y-10395000D01*
X15735000Y-10330000D01*
X15670000Y-10395000D01*
X15735000Y-10460000D01*
X15735000Y-12260000D02*
X15800000Y-12195000D01*
X15735000Y-12130000D01*
X15670000Y-12195000D01*
X15735000Y-12260000D01*
X17150000Y-11065000D02*
X17215000Y-11000000D01*
X17150000Y-10935000D01*
X17085000Y-11000000D01*
X17150000Y-11065000D01*
X17150000Y-12865000D02*
X17215000Y-12800000D01*
X17150000Y-12735000D01*
X17085000Y-12800000D01*
X17150000Y-12865000D01*
X17155000Y-9860000D02*
X17220000Y-9795000D01*
X17155000Y-9730000D01*
X17090000Y-9795000D01*
X17155000Y-9860000D01*
X17155000Y-11660000D02*
X17220000Y-11595000D01*
X17155000Y-11530000D01*
X17090000Y-11595000D01*
X17155000Y-11660000D01*
X18620282Y-4479568D02*
X18685282Y-4414568D01*
X18620282Y-4349568D01*
X18555282Y-4414568D01*
X18620282Y-4479568D01*
X18620282Y-4987568D02*
X18685282Y-4922568D01*
X18620282Y-4857568D01*
X18555282Y-4922568D01*
X18620282Y-4987568D01*
X18620282Y-5495568D02*
X18685282Y-5430568D01*
X18620282Y-5365568D01*
X18555282Y-5430568D01*
X18620282Y-5495568D01*
X18620282Y-6554568D02*
X18685282Y-6489568D01*
X18620282Y-6424568D01*
X18555282Y-6489568D01*
X18620282Y-6554568D01*
X18620282Y-7062568D02*
X18685282Y-6997568D01*
X18620282Y-6932568D01*
X18555282Y-6997568D01*
X18620282Y-7062568D01*
X18620282Y-7570568D02*
X18685282Y-7505568D01*
X18620282Y-7440568D01*
X18555282Y-7505568D01*
X18620282Y-7570568D01*
X18620282Y-8483568D02*
X18685282Y-8418568D01*
X18620282Y-8353568D01*
X18555282Y-8418568D01*
X18620282Y-8483568D01*
X18620282Y-8991568D02*
X18685282Y-8926568D01*
X18620282Y-8861568D01*
X18555282Y-8926568D01*
X18620282Y-8991568D01*
X18620282Y-10195311D02*
X18685282Y-10130311D01*
X18620282Y-10065311D01*
X18555282Y-10130311D01*
X18620282Y-10195311D01*
X18620282Y-10703311D02*
X18685282Y-10638311D01*
X18620282Y-10573311D01*
X18555282Y-10638311D01*
X18620282Y-10703311D01*
X18620282Y-11941811D02*
X18685282Y-11876811D01*
X18620282Y-11811811D01*
X18555282Y-11876811D01*
X18620282Y-11941811D01*
X18620282Y-12449811D02*
X18685282Y-12384811D01*
X18620282Y-12319811D01*
X18555282Y-12384811D01*
X18620282Y-12449811D01*
D14*
X9440000Y-3640000D02*
X9660000Y-3860000D01*
X9660000Y-3640000D02*
X9440000Y-3860000D01*
X9660000Y-3750000D02*
G75*
G02*
X9440000Y-3750000I-110000J0D01*
G01*
X9440000Y-3750000D02*
G75*
G02*
X9660000Y-3750000I110000J0D01*
G01*
X9440000Y-13140000D02*
X9660000Y-13360000D01*
X9660000Y-13140000D02*
X9440000Y-13360000D01*
X9660000Y-13250000D02*
G75*
G02*
X9440000Y-13250000I-110000J0D01*
G01*
X9440000Y-13250000D02*
G75*
G02*
X9660000Y-13250000I110000J0D01*
G01*
X18940000Y-3640000D02*
X19160000Y-3860000D01*
X19160000Y-3640000D02*
X18940000Y-3860000D01*
X19160000Y-3750000D02*
G75*
G02*
X18940000Y-3750000I-110000J0D01*
G01*
X18940000Y-3750000D02*
G75*
G02*
X19160000Y-3750000I110000J0D01*
G01*
X18940000Y-13140000D02*
X19160000Y-13360000D01*
X19160000Y-13140000D02*
X18940000Y-13360000D01*
X19160000Y-13250000D02*
G75*
G02*
X18940000Y-13250000I-110000J0D01*
G01*
X18940000Y-13250000D02*
G75*
G02*
X19160000Y-13250000I110000J0D01*
G01*
D11*
X9558277Y-13813984D02*
X9558277Y-13613984D01*
X9558277Y-13613984D02*
X9605896Y-13613984D01*
X9605896Y-13613984D02*
X9634467Y-13623508D01*
X9634467Y-13623508D02*
X9653515Y-13642555D01*
X9653515Y-13642555D02*
X9663039Y-13661603D01*
X9663039Y-13661603D02*
X9672563Y-13699698D01*
X9672563Y-13699698D02*
X9672563Y-13728269D01*
X9672563Y-13728269D02*
X9663039Y-13766365D01*
X9663039Y-13766365D02*
X9653515Y-13785412D01*
X9653515Y-13785412D02*
X9634467Y-13804460D01*
X9634467Y-13804460D02*
X9605896Y-13813984D01*
X9605896Y-13813984D02*
X9558277Y-13813984D01*
X9758277Y-13813984D02*
X9758277Y-13680650D01*
X9758277Y-13718746D02*
X9767801Y-13699698D01*
X9767801Y-13699698D02*
X9777324Y-13690174D01*
X9777324Y-13690174D02*
X9796372Y-13680650D01*
X9796372Y-13680650D02*
X9815420Y-13680650D01*
X9882086Y-13813984D02*
X9882086Y-13680650D01*
X9882086Y-13613984D02*
X9872563Y-13623508D01*
X9872563Y-13623508D02*
X9882086Y-13633031D01*
X9882086Y-13633031D02*
X9891610Y-13623508D01*
X9891610Y-13623508D02*
X9882086Y-13613984D01*
X9882086Y-13613984D02*
X9882086Y-13633031D01*
X10005896Y-13813984D02*
X9986848Y-13804460D01*
X9986848Y-13804460D02*
X9977324Y-13785412D01*
X9977324Y-13785412D02*
X9977324Y-13613984D01*
X10110658Y-13813984D02*
X10091610Y-13804460D01*
X10091610Y-13804460D02*
X10082086Y-13785412D01*
X10082086Y-13785412D02*
X10082086Y-13613984D01*
X10339229Y-13813984D02*
X10339229Y-13613984D01*
X10339229Y-13613984D02*
X10405896Y-13756841D01*
X10405896Y-13756841D02*
X10472563Y-13613984D01*
X10472563Y-13613984D02*
X10472563Y-13813984D01*
X10653515Y-13813984D02*
X10653515Y-13709222D01*
X10653515Y-13709222D02*
X10643991Y-13690174D01*
X10643991Y-13690174D02*
X10624944Y-13680650D01*
X10624944Y-13680650D02*
X10586848Y-13680650D01*
X10586848Y-13680650D02*
X10567801Y-13690174D01*
X10653515Y-13804460D02*
X10634467Y-13813984D01*
X10634467Y-13813984D02*
X10586848Y-13813984D01*
X10586848Y-13813984D02*
X10567801Y-13804460D01*
X10567801Y-13804460D02*
X10558277Y-13785412D01*
X10558277Y-13785412D02*
X10558277Y-13766365D01*
X10558277Y-13766365D02*
X10567801Y-13747317D01*
X10567801Y-13747317D02*
X10586848Y-13737793D01*
X10586848Y-13737793D02*
X10634467Y-13737793D01*
X10634467Y-13737793D02*
X10653515Y-13728269D01*
X10748753Y-13680650D02*
X10748753Y-13880650D01*
X10748753Y-13690174D02*
X10767801Y-13680650D01*
X10767801Y-13680650D02*
X10805896Y-13680650D01*
X10805896Y-13680650D02*
X10824944Y-13690174D01*
X10824944Y-13690174D02*
X10834467Y-13699698D01*
X10834467Y-13699698D02*
X10843991Y-13718746D01*
X10843991Y-13718746D02*
X10843991Y-13775888D01*
X10843991Y-13775888D02*
X10834467Y-13794936D01*
X10834467Y-13794936D02*
X10824944Y-13804460D01*
X10824944Y-13804460D02*
X10805896Y-13813984D01*
X10805896Y-13813984D02*
X10767801Y-13813984D01*
X10767801Y-13813984D02*
X10748753Y-13804460D01*
X10929705Y-13794936D02*
X10939229Y-13804460D01*
X10939229Y-13804460D02*
X10929705Y-13813984D01*
X10929705Y-13813984D02*
X10920182Y-13804460D01*
X10920182Y-13804460D02*
X10929705Y-13794936D01*
X10929705Y-13794936D02*
X10929705Y-13813984D01*
X10929705Y-13690174D02*
X10939229Y-13699698D01*
X10939229Y-13699698D02*
X10929705Y-13709222D01*
X10929705Y-13709222D02*
X10920182Y-13699698D01*
X10920182Y-13699698D02*
X10929705Y-13690174D01*
X10929705Y-13690174D02*
X10929705Y-13709222D01*
D12*
X9217500Y-14102500D02*
X9297500Y-14182500D01*
X9297500Y-14102500D02*
X9217500Y-14182500D01*
D11*
X9596372Y-14033984D02*
X9615420Y-14033984D01*
X9615420Y-14033984D02*
X9634467Y-14043508D01*
X9634467Y-14043508D02*
X9643991Y-14053031D01*
X9643991Y-14053031D02*
X9653515Y-14072079D01*
X9653515Y-14072079D02*
X9663039Y-14110174D01*
X9663039Y-14110174D02*
X9663039Y-14157793D01*
X9663039Y-14157793D02*
X9653515Y-14195888D01*
X9653515Y-14195888D02*
X9643991Y-14214936D01*
X9643991Y-14214936D02*
X9634467Y-14224460D01*
X9634467Y-14224460D02*
X9615420Y-14233984D01*
X9615420Y-14233984D02*
X9596372Y-14233984D01*
X9596372Y-14233984D02*
X9577324Y-14224460D01*
X9577324Y-14224460D02*
X9567801Y-14214936D01*
X9567801Y-14214936D02*
X9558277Y-14195888D01*
X9558277Y-14195888D02*
X9548753Y-14157793D01*
X9548753Y-14157793D02*
X9548753Y-14110174D01*
X9548753Y-14110174D02*
X9558277Y-14072079D01*
X9558277Y-14072079D02*
X9567801Y-14053031D01*
X9567801Y-14053031D02*
X9577324Y-14043508D01*
X9577324Y-14043508D02*
X9596372Y-14033984D01*
X9748753Y-14214936D02*
X9758277Y-14224460D01*
X9758277Y-14224460D02*
X9748753Y-14233984D01*
X9748753Y-14233984D02*
X9739229Y-14224460D01*
X9739229Y-14224460D02*
X9748753Y-14214936D01*
X9748753Y-14214936D02*
X9748753Y-14233984D01*
X9872563Y-14119698D02*
X9853515Y-14110174D01*
X9853515Y-14110174D02*
X9843991Y-14100650D01*
X9843991Y-14100650D02*
X9834467Y-14081603D01*
X9834467Y-14081603D02*
X9834467Y-14072079D01*
X9834467Y-14072079D02*
X9843991Y-14053031D01*
X9843991Y-14053031D02*
X9853515Y-14043508D01*
X9853515Y-14043508D02*
X9872563Y-14033984D01*
X9872563Y-14033984D02*
X9910658Y-14033984D01*
X9910658Y-14033984D02*
X9929705Y-14043508D01*
X9929705Y-14043508D02*
X9939229Y-14053031D01*
X9939229Y-14053031D02*
X9948753Y-14072079D01*
X9948753Y-14072079D02*
X9948753Y-14081603D01*
X9948753Y-14081603D02*
X9939229Y-14100650D01*
X9939229Y-14100650D02*
X9929705Y-14110174D01*
X9929705Y-14110174D02*
X9910658Y-14119698D01*
X9910658Y-14119698D02*
X9872563Y-14119698D01*
X9872563Y-14119698D02*
X9853515Y-14129222D01*
X9853515Y-14129222D02*
X9843991Y-14138746D01*
X9843991Y-14138746D02*
X9834467Y-14157793D01*
X9834467Y-14157793D02*
X9834467Y-14195888D01*
X9834467Y-14195888D02*
X9843991Y-14214936D01*
X9843991Y-14214936D02*
X9853515Y-14224460D01*
X9853515Y-14224460D02*
X9872563Y-14233984D01*
X9872563Y-14233984D02*
X9910658Y-14233984D01*
X9910658Y-14233984D02*
X9929705Y-14224460D01*
X9929705Y-14224460D02*
X9939229Y-14214936D01*
X9939229Y-14214936D02*
X9948753Y-14195888D01*
X9948753Y-14195888D02*
X9948753Y-14157793D01*
X9948753Y-14157793D02*
X9939229Y-14138746D01*
X9939229Y-14138746D02*
X9929705Y-14129222D01*
X9929705Y-14129222D02*
X9910658Y-14119698D01*
X10072563Y-14033984D02*
X10091610Y-14033984D01*
X10091610Y-14033984D02*
X10110658Y-14043508D01*
X10110658Y-14043508D02*
X10120182Y-14053031D01*
X10120182Y-14053031D02*
X10129705Y-14072079D01*
X10129705Y-14072079D02*
X10139229Y-14110174D01*
X10139229Y-14110174D02*
X10139229Y-14157793D01*
X10139229Y-14157793D02*
X10129705Y-14195888D01*
X10129705Y-14195888D02*
X10120182Y-14214936D01*
X10120182Y-14214936D02*
X10110658Y-14224460D01*
X10110658Y-14224460D02*
X10091610Y-14233984D01*
X10091610Y-14233984D02*
X10072563Y-14233984D01*
X10072563Y-14233984D02*
X10053515Y-14224460D01*
X10053515Y-14224460D02*
X10043991Y-14214936D01*
X10043991Y-14214936D02*
X10034467Y-14195888D01*
X10034467Y-14195888D02*
X10024944Y-14157793D01*
X10024944Y-14157793D02*
X10024944Y-14110174D01*
X10024944Y-14110174D02*
X10034467Y-14072079D01*
X10034467Y-14072079D02*
X10043991Y-14053031D01*
X10043991Y-14053031D02*
X10053515Y-14043508D01*
X10053515Y-14043508D02*
X10072563Y-14033984D01*
X10263039Y-14033984D02*
X10282086Y-14033984D01*
X10282086Y-14033984D02*
X10301134Y-14043508D01*
X10301134Y-14043508D02*
X10310658Y-14053031D01*
X10310658Y-14053031D02*
X10320182Y-14072079D01*
X10320182Y-14072079D02*
X10329705Y-14110174D01*
X10329705Y-14110174D02*
X10329705Y-14157793D01*
X10329705Y-14157793D02*
X10320182Y-14195888D01*
X10320182Y-14195888D02*
X10310658Y-14214936D01*
X10310658Y-14214936D02*
X10301134Y-14224460D01*
X10301134Y-14224460D02*
X10282086Y-14233984D01*
X10282086Y-14233984D02*
X10263039Y-14233984D01*
X10263039Y-14233984D02*
X10243991Y-14224460D01*
X10243991Y-14224460D02*
X10234467Y-14214936D01*
X10234467Y-14214936D02*
X10224944Y-14195888D01*
X10224944Y-14195888D02*
X10215420Y-14157793D01*
X10215420Y-14157793D02*
X10215420Y-14110174D01*
X10215420Y-14110174D02*
X10224944Y-14072079D01*
X10224944Y-14072079D02*
X10234467Y-14053031D01*
X10234467Y-14053031D02*
X10243991Y-14043508D01*
X10243991Y-14043508D02*
X10263039Y-14033984D01*
X10415420Y-14233984D02*
X10415420Y-14100650D01*
X10415420Y-14119698D02*
X10424944Y-14110174D01*
X10424944Y-14110174D02*
X10443991Y-14100650D01*
X10443991Y-14100650D02*
X10472563Y-14100650D01*
X10472563Y-14100650D02*
X10491610Y-14110174D01*
X10491610Y-14110174D02*
X10501134Y-14129222D01*
X10501134Y-14129222D02*
X10501134Y-14233984D01*
X10501134Y-14129222D02*
X10510658Y-14110174D01*
X10510658Y-14110174D02*
X10529705Y-14100650D01*
X10529705Y-14100650D02*
X10558277Y-14100650D01*
X10558277Y-14100650D02*
X10577325Y-14110174D01*
X10577325Y-14110174D02*
X10586848Y-14129222D01*
X10586848Y-14129222D02*
X10586848Y-14233984D01*
X10682086Y-14233984D02*
X10682086Y-14100650D01*
X10682086Y-14119698D02*
X10691610Y-14110174D01*
X10691610Y-14110174D02*
X10710658Y-14100650D01*
X10710658Y-14100650D02*
X10739229Y-14100650D01*
X10739229Y-14100650D02*
X10758277Y-14110174D01*
X10758277Y-14110174D02*
X10767801Y-14129222D01*
X10767801Y-14129222D02*
X10767801Y-14233984D01*
X10767801Y-14129222D02*
X10777325Y-14110174D01*
X10777325Y-14110174D02*
X10796372Y-14100650D01*
X10796372Y-14100650D02*
X10824944Y-14100650D01*
X10824944Y-14100650D02*
X10843991Y-14110174D01*
X10843991Y-14110174D02*
X10853515Y-14129222D01*
X10853515Y-14129222D02*
X10853515Y-14233984D01*
X11243991Y-14024460D02*
X11072563Y-14281603D01*
X11501134Y-14033984D02*
X11520182Y-14033984D01*
X11520182Y-14033984D02*
X11539229Y-14043508D01*
X11539229Y-14043508D02*
X11548753Y-14053031D01*
X11548753Y-14053031D02*
X11558277Y-14072079D01*
X11558277Y-14072079D02*
X11567801Y-14110174D01*
X11567801Y-14110174D02*
X11567801Y-14157793D01*
X11567801Y-14157793D02*
X11558277Y-14195888D01*
X11558277Y-14195888D02*
X11548753Y-14214936D01*
X11548753Y-14214936D02*
X11539229Y-14224460D01*
X11539229Y-14224460D02*
X11520182Y-14233984D01*
X11520182Y-14233984D02*
X11501134Y-14233984D01*
X11501134Y-14233984D02*
X11482086Y-14224460D01*
X11482086Y-14224460D02*
X11472563Y-14214936D01*
X11472563Y-14214936D02*
X11463039Y-14195888D01*
X11463039Y-14195888D02*
X11453515Y-14157793D01*
X11453515Y-14157793D02*
X11453515Y-14110174D01*
X11453515Y-14110174D02*
X11463039Y-14072079D01*
X11463039Y-14072079D02*
X11472563Y-14053031D01*
X11472563Y-14053031D02*
X11482086Y-14043508D01*
X11482086Y-14043508D02*
X11501134Y-14033984D01*
X11653515Y-14214936D02*
X11663039Y-14224460D01*
X11663039Y-14224460D02*
X11653515Y-14233984D01*
X11653515Y-14233984D02*
X11643991Y-14224460D01*
X11643991Y-14224460D02*
X11653515Y-14214936D01*
X11653515Y-14214936D02*
X11653515Y-14233984D01*
X11786848Y-14033984D02*
X11805896Y-14033984D01*
X11805896Y-14033984D02*
X11824944Y-14043508D01*
X11824944Y-14043508D02*
X11834467Y-14053031D01*
X11834467Y-14053031D02*
X11843991Y-14072079D01*
X11843991Y-14072079D02*
X11853515Y-14110174D01*
X11853515Y-14110174D02*
X11853515Y-14157793D01*
X11853515Y-14157793D02*
X11843991Y-14195888D01*
X11843991Y-14195888D02*
X11834467Y-14214936D01*
X11834467Y-14214936D02*
X11824944Y-14224460D01*
X11824944Y-14224460D02*
X11805896Y-14233984D01*
X11805896Y-14233984D02*
X11786848Y-14233984D01*
X11786848Y-14233984D02*
X11767801Y-14224460D01*
X11767801Y-14224460D02*
X11758277Y-14214936D01*
X11758277Y-14214936D02*
X11748753Y-14195888D01*
X11748753Y-14195888D02*
X11739229Y-14157793D01*
X11739229Y-14157793D02*
X11739229Y-14110174D01*
X11739229Y-14110174D02*
X11748753Y-14072079D01*
X11748753Y-14072079D02*
X11758277Y-14053031D01*
X11758277Y-14053031D02*
X11767801Y-14043508D01*
X11767801Y-14043508D02*
X11786848Y-14033984D01*
X11920182Y-14033984D02*
X12043991Y-14033984D01*
X12043991Y-14033984D02*
X11977325Y-14110174D01*
X11977325Y-14110174D02*
X12005896Y-14110174D01*
X12005896Y-14110174D02*
X12024944Y-14119698D01*
X12024944Y-14119698D02*
X12034467Y-14129222D01*
X12034467Y-14129222D02*
X12043991Y-14148269D01*
X12043991Y-14148269D02*
X12043991Y-14195888D01*
X12043991Y-14195888D02*
X12034467Y-14214936D01*
X12034467Y-14214936D02*
X12024944Y-14224460D01*
X12024944Y-14224460D02*
X12005896Y-14233984D01*
X12005896Y-14233984D02*
X11948753Y-14233984D01*
X11948753Y-14233984D02*
X11929706Y-14224460D01*
X11929706Y-14224460D02*
X11920182Y-14214936D01*
X12234467Y-14233984D02*
X12120182Y-14233984D01*
X12177325Y-14233984D02*
X12177325Y-14033984D01*
X12177325Y-14033984D02*
X12158277Y-14062555D01*
X12158277Y-14062555D02*
X12139229Y-14081603D01*
X12139229Y-14081603D02*
X12120182Y-14091127D01*
X12415420Y-14033984D02*
X12320182Y-14033984D01*
X12320182Y-14033984D02*
X12310658Y-14129222D01*
X12310658Y-14129222D02*
X12320182Y-14119698D01*
X12320182Y-14119698D02*
X12339229Y-14110174D01*
X12339229Y-14110174D02*
X12386848Y-14110174D01*
X12386848Y-14110174D02*
X12405896Y-14119698D01*
X12405896Y-14119698D02*
X12415420Y-14129222D01*
X12415420Y-14129222D02*
X12424944Y-14148269D01*
X12424944Y-14148269D02*
X12424944Y-14195888D01*
X12424944Y-14195888D02*
X12415420Y-14214936D01*
X12415420Y-14214936D02*
X12405896Y-14224460D01*
X12405896Y-14224460D02*
X12386848Y-14233984D01*
X12386848Y-14233984D02*
X12339229Y-14233984D01*
X12339229Y-14233984D02*
X12320182Y-14224460D01*
X12320182Y-14224460D02*
X12310658Y-14214936D01*
X12501134Y-14033984D02*
X12501134Y-14072079D01*
X12577325Y-14033984D02*
X12577325Y-14072079D01*
X12872563Y-14310174D02*
X12863039Y-14300650D01*
X12863039Y-14300650D02*
X12843991Y-14272079D01*
X12843991Y-14272079D02*
X12834468Y-14253031D01*
X12834468Y-14253031D02*
X12824944Y-14224460D01*
X12824944Y-14224460D02*
X12815420Y-14176841D01*
X12815420Y-14176841D02*
X12815420Y-14138746D01*
X12815420Y-14138746D02*
X12824944Y-14091127D01*
X12824944Y-14091127D02*
X12834468Y-14062555D01*
X12834468Y-14062555D02*
X12843991Y-14043508D01*
X12843991Y-14043508D02*
X12863039Y-14014936D01*
X12863039Y-14014936D02*
X12872563Y-14005412D01*
X12929706Y-14033984D02*
X13053515Y-14033984D01*
X13053515Y-14033984D02*
X12986848Y-14110174D01*
X12986848Y-14110174D02*
X13015420Y-14110174D01*
X13015420Y-14110174D02*
X13034468Y-14119698D01*
X13034468Y-14119698D02*
X13043991Y-14129222D01*
X13043991Y-14129222D02*
X13053515Y-14148269D01*
X13053515Y-14148269D02*
X13053515Y-14195888D01*
X13053515Y-14195888D02*
X13043991Y-14214936D01*
X13043991Y-14214936D02*
X13034468Y-14224460D01*
X13034468Y-14224460D02*
X13015420Y-14233984D01*
X13015420Y-14233984D02*
X12958277Y-14233984D01*
X12958277Y-14233984D02*
X12939229Y-14224460D01*
X12939229Y-14224460D02*
X12929706Y-14214936D01*
X13177325Y-14033984D02*
X13196372Y-14033984D01*
X13196372Y-14033984D02*
X13215420Y-14043508D01*
X13215420Y-14043508D02*
X13224944Y-14053031D01*
X13224944Y-14053031D02*
X13234468Y-14072079D01*
X13234468Y-14072079D02*
X13243991Y-14110174D01*
X13243991Y-14110174D02*
X13243991Y-14157793D01*
X13243991Y-14157793D02*
X13234468Y-14195888D01*
X13234468Y-14195888D02*
X13224944Y-14214936D01*
X13224944Y-14214936D02*
X13215420Y-14224460D01*
X13215420Y-14224460D02*
X13196372Y-14233984D01*
X13196372Y-14233984D02*
X13177325Y-14233984D01*
X13177325Y-14233984D02*
X13158277Y-14224460D01*
X13158277Y-14224460D02*
X13148753Y-14214936D01*
X13148753Y-14214936D02*
X13139229Y-14195888D01*
X13139229Y-14195888D02*
X13129706Y-14157793D01*
X13129706Y-14157793D02*
X13129706Y-14110174D01*
X13129706Y-14110174D02*
X13139229Y-14072079D01*
X13139229Y-14072079D02*
X13148753Y-14053031D01*
X13148753Y-14053031D02*
X13158277Y-14043508D01*
X13158277Y-14043508D02*
X13177325Y-14033984D01*
X13482087Y-14233984D02*
X13482087Y-14033984D01*
X13567801Y-14233984D02*
X13567801Y-14129222D01*
X13567801Y-14129222D02*
X13558277Y-14110174D01*
X13558277Y-14110174D02*
X13539230Y-14100650D01*
X13539230Y-14100650D02*
X13510658Y-14100650D01*
X13510658Y-14100650D02*
X13491610Y-14110174D01*
X13491610Y-14110174D02*
X13482087Y-14119698D01*
X13691610Y-14233984D02*
X13672563Y-14224460D01*
X13672563Y-14224460D02*
X13663039Y-14214936D01*
X13663039Y-14214936D02*
X13653515Y-14195888D01*
X13653515Y-14195888D02*
X13653515Y-14138746D01*
X13653515Y-14138746D02*
X13663039Y-14119698D01*
X13663039Y-14119698D02*
X13672563Y-14110174D01*
X13672563Y-14110174D02*
X13691610Y-14100650D01*
X13691610Y-14100650D02*
X13720182Y-14100650D01*
X13720182Y-14100650D02*
X13739230Y-14110174D01*
X13739230Y-14110174D02*
X13748753Y-14119698D01*
X13748753Y-14119698D02*
X13758277Y-14138746D01*
X13758277Y-14138746D02*
X13758277Y-14195888D01*
X13758277Y-14195888D02*
X13748753Y-14214936D01*
X13748753Y-14214936D02*
X13739230Y-14224460D01*
X13739230Y-14224460D02*
X13720182Y-14233984D01*
X13720182Y-14233984D02*
X13691610Y-14233984D01*
X13872563Y-14233984D02*
X13853515Y-14224460D01*
X13853515Y-14224460D02*
X13843991Y-14205412D01*
X13843991Y-14205412D02*
X13843991Y-14033984D01*
X14024944Y-14224460D02*
X14005896Y-14233984D01*
X14005896Y-14233984D02*
X13967801Y-14233984D01*
X13967801Y-14233984D02*
X13948753Y-14224460D01*
X13948753Y-14224460D02*
X13939230Y-14205412D01*
X13939230Y-14205412D02*
X13939230Y-14129222D01*
X13939230Y-14129222D02*
X13948753Y-14110174D01*
X13948753Y-14110174D02*
X13967801Y-14100650D01*
X13967801Y-14100650D02*
X14005896Y-14100650D01*
X14005896Y-14100650D02*
X14024944Y-14110174D01*
X14024944Y-14110174D02*
X14034468Y-14129222D01*
X14034468Y-14129222D02*
X14034468Y-14148269D01*
X14034468Y-14148269D02*
X13939230Y-14167317D01*
X14110658Y-14224460D02*
X14129706Y-14233984D01*
X14129706Y-14233984D02*
X14167801Y-14233984D01*
X14167801Y-14233984D02*
X14186849Y-14224460D01*
X14186849Y-14224460D02*
X14196372Y-14205412D01*
X14196372Y-14205412D02*
X14196372Y-14195888D01*
X14196372Y-14195888D02*
X14186849Y-14176841D01*
X14186849Y-14176841D02*
X14167801Y-14167317D01*
X14167801Y-14167317D02*
X14139230Y-14167317D01*
X14139230Y-14167317D02*
X14120182Y-14157793D01*
X14120182Y-14157793D02*
X14110658Y-14138746D01*
X14110658Y-14138746D02*
X14110658Y-14129222D01*
X14110658Y-14129222D02*
X14120182Y-14110174D01*
X14120182Y-14110174D02*
X14139230Y-14100650D01*
X14139230Y-14100650D02*
X14167801Y-14100650D01*
X14167801Y-14100650D02*
X14186849Y-14110174D01*
X14263039Y-14310174D02*
X14272563Y-14300650D01*
X14272563Y-14300650D02*
X14291611Y-14272079D01*
X14291611Y-14272079D02*
X14301134Y-14253031D01*
X14301134Y-14253031D02*
X14310658Y-14224460D01*
X14310658Y-14224460D02*
X14320182Y-14176841D01*
X14320182Y-14176841D02*
X14320182Y-14138746D01*
X14320182Y-14138746D02*
X14310658Y-14091127D01*
X14310658Y-14091127D02*
X14301134Y-14062555D01*
X14301134Y-14062555D02*
X14291611Y-14043508D01*
X14291611Y-14043508D02*
X14272563Y-14014936D01*
X14272563Y-14014936D02*
X14263039Y-14005412D01*
D12*
X9297500Y-14406500D02*
G75*
G02*
X9217500Y-14406500I-40000J0D01*
G01*
X9217500Y-14406500D02*
G75*
G02*
X9297500Y-14406500I40000J0D01*
G01*
D11*
X9596372Y-14297984D02*
X9615420Y-14297984D01*
X9615420Y-14297984D02*
X9634467Y-14307508D01*
X9634467Y-14307508D02*
X9643991Y-14317031D01*
X9643991Y-14317031D02*
X9653515Y-14336079D01*
X9653515Y-14336079D02*
X9663039Y-14374174D01*
X9663039Y-14374174D02*
X9663039Y-14421793D01*
X9663039Y-14421793D02*
X9653515Y-14459888D01*
X9653515Y-14459888D02*
X9643991Y-14478936D01*
X9643991Y-14478936D02*
X9634467Y-14488460D01*
X9634467Y-14488460D02*
X9615420Y-14497984D01*
X9615420Y-14497984D02*
X9596372Y-14497984D01*
X9596372Y-14497984D02*
X9577324Y-14488460D01*
X9577324Y-14488460D02*
X9567801Y-14478936D01*
X9567801Y-14478936D02*
X9558277Y-14459888D01*
X9558277Y-14459888D02*
X9548753Y-14421793D01*
X9548753Y-14421793D02*
X9548753Y-14374174D01*
X9548753Y-14374174D02*
X9558277Y-14336079D01*
X9558277Y-14336079D02*
X9567801Y-14317031D01*
X9567801Y-14317031D02*
X9577324Y-14307508D01*
X9577324Y-14307508D02*
X9596372Y-14297984D01*
X9748753Y-14478936D02*
X9758277Y-14488460D01*
X9758277Y-14488460D02*
X9748753Y-14497984D01*
X9748753Y-14497984D02*
X9739229Y-14488460D01*
X9739229Y-14488460D02*
X9748753Y-14478936D01*
X9748753Y-14478936D02*
X9748753Y-14497984D01*
X9872563Y-14383698D02*
X9853515Y-14374174D01*
X9853515Y-14374174D02*
X9843991Y-14364650D01*
X9843991Y-14364650D02*
X9834467Y-14345603D01*
X9834467Y-14345603D02*
X9834467Y-14336079D01*
X9834467Y-14336079D02*
X9843991Y-14317031D01*
X9843991Y-14317031D02*
X9853515Y-14307508D01*
X9853515Y-14307508D02*
X9872563Y-14297984D01*
X9872563Y-14297984D02*
X9910658Y-14297984D01*
X9910658Y-14297984D02*
X9929705Y-14307508D01*
X9929705Y-14307508D02*
X9939229Y-14317031D01*
X9939229Y-14317031D02*
X9948753Y-14336079D01*
X9948753Y-14336079D02*
X9948753Y-14345603D01*
X9948753Y-14345603D02*
X9939229Y-14364650D01*
X9939229Y-14364650D02*
X9929705Y-14374174D01*
X9929705Y-14374174D02*
X9910658Y-14383698D01*
X9910658Y-14383698D02*
X9872563Y-14383698D01*
X9872563Y-14383698D02*
X9853515Y-14393222D01*
X9853515Y-14393222D02*
X9843991Y-14402746D01*
X9843991Y-14402746D02*
X9834467Y-14421793D01*
X9834467Y-14421793D02*
X9834467Y-14459888D01*
X9834467Y-14459888D02*
X9843991Y-14478936D01*
X9843991Y-14478936D02*
X9853515Y-14488460D01*
X9853515Y-14488460D02*
X9872563Y-14497984D01*
X9872563Y-14497984D02*
X9910658Y-14497984D01*
X9910658Y-14497984D02*
X9929705Y-14488460D01*
X9929705Y-14488460D02*
X9939229Y-14478936D01*
X9939229Y-14478936D02*
X9948753Y-14459888D01*
X9948753Y-14459888D02*
X9948753Y-14421793D01*
X9948753Y-14421793D02*
X9939229Y-14402746D01*
X9939229Y-14402746D02*
X9929705Y-14393222D01*
X9929705Y-14393222D02*
X9910658Y-14383698D01*
X10072563Y-14297984D02*
X10091610Y-14297984D01*
X10091610Y-14297984D02*
X10110658Y-14307508D01*
X10110658Y-14307508D02*
X10120182Y-14317031D01*
X10120182Y-14317031D02*
X10129705Y-14336079D01*
X10129705Y-14336079D02*
X10139229Y-14374174D01*
X10139229Y-14374174D02*
X10139229Y-14421793D01*
X10139229Y-14421793D02*
X10129705Y-14459888D01*
X10129705Y-14459888D02*
X10120182Y-14478936D01*
X10120182Y-14478936D02*
X10110658Y-14488460D01*
X10110658Y-14488460D02*
X10091610Y-14497984D01*
X10091610Y-14497984D02*
X10072563Y-14497984D01*
X10072563Y-14497984D02*
X10053515Y-14488460D01*
X10053515Y-14488460D02*
X10043991Y-14478936D01*
X10043991Y-14478936D02*
X10034467Y-14459888D01*
X10034467Y-14459888D02*
X10024944Y-14421793D01*
X10024944Y-14421793D02*
X10024944Y-14374174D01*
X10024944Y-14374174D02*
X10034467Y-14336079D01*
X10034467Y-14336079D02*
X10043991Y-14317031D01*
X10043991Y-14317031D02*
X10053515Y-14307508D01*
X10053515Y-14307508D02*
X10072563Y-14297984D01*
X10263039Y-14297984D02*
X10282086Y-14297984D01*
X10282086Y-14297984D02*
X10301134Y-14307508D01*
X10301134Y-14307508D02*
X10310658Y-14317031D01*
X10310658Y-14317031D02*
X10320182Y-14336079D01*
X10320182Y-14336079D02*
X10329705Y-14374174D01*
X10329705Y-14374174D02*
X10329705Y-14421793D01*
X10329705Y-14421793D02*
X10320182Y-14459888D01*
X10320182Y-14459888D02*
X10310658Y-14478936D01*
X10310658Y-14478936D02*
X10301134Y-14488460D01*
X10301134Y-14488460D02*
X10282086Y-14497984D01*
X10282086Y-14497984D02*
X10263039Y-14497984D01*
X10263039Y-14497984D02*
X10243991Y-14488460D01*
X10243991Y-14488460D02*
X10234467Y-14478936D01*
X10234467Y-14478936D02*
X10224944Y-14459888D01*
X10224944Y-14459888D02*
X10215420Y-14421793D01*
X10215420Y-14421793D02*
X10215420Y-14374174D01*
X10215420Y-14374174D02*
X10224944Y-14336079D01*
X10224944Y-14336079D02*
X10234467Y-14317031D01*
X10234467Y-14317031D02*
X10243991Y-14307508D01*
X10243991Y-14307508D02*
X10263039Y-14297984D01*
X10415420Y-14497984D02*
X10415420Y-14364650D01*
X10415420Y-14383698D02*
X10424944Y-14374174D01*
X10424944Y-14374174D02*
X10443991Y-14364650D01*
X10443991Y-14364650D02*
X10472563Y-14364650D01*
X10472563Y-14364650D02*
X10491610Y-14374174D01*
X10491610Y-14374174D02*
X10501134Y-14393222D01*
X10501134Y-14393222D02*
X10501134Y-14497984D01*
X10501134Y-14393222D02*
X10510658Y-14374174D01*
X10510658Y-14374174D02*
X10529705Y-14364650D01*
X10529705Y-14364650D02*
X10558277Y-14364650D01*
X10558277Y-14364650D02*
X10577325Y-14374174D01*
X10577325Y-14374174D02*
X10586848Y-14393222D01*
X10586848Y-14393222D02*
X10586848Y-14497984D01*
X10682086Y-14497984D02*
X10682086Y-14364650D01*
X10682086Y-14383698D02*
X10691610Y-14374174D01*
X10691610Y-14374174D02*
X10710658Y-14364650D01*
X10710658Y-14364650D02*
X10739229Y-14364650D01*
X10739229Y-14364650D02*
X10758277Y-14374174D01*
X10758277Y-14374174D02*
X10767801Y-14393222D01*
X10767801Y-14393222D02*
X10767801Y-14497984D01*
X10767801Y-14393222D02*
X10777325Y-14374174D01*
X10777325Y-14374174D02*
X10796372Y-14364650D01*
X10796372Y-14364650D02*
X10824944Y-14364650D01*
X10824944Y-14364650D02*
X10843991Y-14374174D01*
X10843991Y-14374174D02*
X10853515Y-14393222D01*
X10853515Y-14393222D02*
X10853515Y-14497984D01*
X11243991Y-14288460D02*
X11072563Y-14545603D01*
X11501134Y-14297984D02*
X11520182Y-14297984D01*
X11520182Y-14297984D02*
X11539229Y-14307508D01*
X11539229Y-14307508D02*
X11548753Y-14317031D01*
X11548753Y-14317031D02*
X11558277Y-14336079D01*
X11558277Y-14336079D02*
X11567801Y-14374174D01*
X11567801Y-14374174D02*
X11567801Y-14421793D01*
X11567801Y-14421793D02*
X11558277Y-14459888D01*
X11558277Y-14459888D02*
X11548753Y-14478936D01*
X11548753Y-14478936D02*
X11539229Y-14488460D01*
X11539229Y-14488460D02*
X11520182Y-14497984D01*
X11520182Y-14497984D02*
X11501134Y-14497984D01*
X11501134Y-14497984D02*
X11482086Y-14488460D01*
X11482086Y-14488460D02*
X11472563Y-14478936D01*
X11472563Y-14478936D02*
X11463039Y-14459888D01*
X11463039Y-14459888D02*
X11453515Y-14421793D01*
X11453515Y-14421793D02*
X11453515Y-14374174D01*
X11453515Y-14374174D02*
X11463039Y-14336079D01*
X11463039Y-14336079D02*
X11472563Y-14317031D01*
X11472563Y-14317031D02*
X11482086Y-14307508D01*
X11482086Y-14307508D02*
X11501134Y-14297984D01*
X11653515Y-14478936D02*
X11663039Y-14488460D01*
X11663039Y-14488460D02*
X11653515Y-14497984D01*
X11653515Y-14497984D02*
X11643991Y-14488460D01*
X11643991Y-14488460D02*
X11653515Y-14478936D01*
X11653515Y-14478936D02*
X11653515Y-14497984D01*
X11786848Y-14297984D02*
X11805896Y-14297984D01*
X11805896Y-14297984D02*
X11824944Y-14307508D01*
X11824944Y-14307508D02*
X11834467Y-14317031D01*
X11834467Y-14317031D02*
X11843991Y-14336079D01*
X11843991Y-14336079D02*
X11853515Y-14374174D01*
X11853515Y-14374174D02*
X11853515Y-14421793D01*
X11853515Y-14421793D02*
X11843991Y-14459888D01*
X11843991Y-14459888D02*
X11834467Y-14478936D01*
X11834467Y-14478936D02*
X11824944Y-14488460D01*
X11824944Y-14488460D02*
X11805896Y-14497984D01*
X11805896Y-14497984D02*
X11786848Y-14497984D01*
X11786848Y-14497984D02*
X11767801Y-14488460D01*
X11767801Y-14488460D02*
X11758277Y-14478936D01*
X11758277Y-14478936D02*
X11748753Y-14459888D01*
X11748753Y-14459888D02*
X11739229Y-14421793D01*
X11739229Y-14421793D02*
X11739229Y-14374174D01*
X11739229Y-14374174D02*
X11748753Y-14336079D01*
X11748753Y-14336079D02*
X11758277Y-14317031D01*
X11758277Y-14317031D02*
X11767801Y-14307508D01*
X11767801Y-14307508D02*
X11786848Y-14297984D01*
X11920182Y-14297984D02*
X12043991Y-14297984D01*
X12043991Y-14297984D02*
X11977325Y-14374174D01*
X11977325Y-14374174D02*
X12005896Y-14374174D01*
X12005896Y-14374174D02*
X12024944Y-14383698D01*
X12024944Y-14383698D02*
X12034467Y-14393222D01*
X12034467Y-14393222D02*
X12043991Y-14412269D01*
X12043991Y-14412269D02*
X12043991Y-14459888D01*
X12043991Y-14459888D02*
X12034467Y-14478936D01*
X12034467Y-14478936D02*
X12024944Y-14488460D01*
X12024944Y-14488460D02*
X12005896Y-14497984D01*
X12005896Y-14497984D02*
X11948753Y-14497984D01*
X11948753Y-14497984D02*
X11929706Y-14488460D01*
X11929706Y-14488460D02*
X11920182Y-14478936D01*
X12234467Y-14497984D02*
X12120182Y-14497984D01*
X12177325Y-14497984D02*
X12177325Y-14297984D01*
X12177325Y-14297984D02*
X12158277Y-14326555D01*
X12158277Y-14326555D02*
X12139229Y-14345603D01*
X12139229Y-14345603D02*
X12120182Y-14355127D01*
X12415420Y-14297984D02*
X12320182Y-14297984D01*
X12320182Y-14297984D02*
X12310658Y-14393222D01*
X12310658Y-14393222D02*
X12320182Y-14383698D01*
X12320182Y-14383698D02*
X12339229Y-14374174D01*
X12339229Y-14374174D02*
X12386848Y-14374174D01*
X12386848Y-14374174D02*
X12405896Y-14383698D01*
X12405896Y-14383698D02*
X12415420Y-14393222D01*
X12415420Y-14393222D02*
X12424944Y-14412269D01*
X12424944Y-14412269D02*
X12424944Y-14459888D01*
X12424944Y-14459888D02*
X12415420Y-14478936D01*
X12415420Y-14478936D02*
X12405896Y-14488460D01*
X12405896Y-14488460D02*
X12386848Y-14497984D01*
X12386848Y-14497984D02*
X12339229Y-14497984D01*
X12339229Y-14497984D02*
X12320182Y-14488460D01*
X12320182Y-14488460D02*
X12310658Y-14478936D01*
X12501134Y-14297984D02*
X12501134Y-14336079D01*
X12577325Y-14297984D02*
X12577325Y-14336079D01*
X12872563Y-14574174D02*
X12863039Y-14564650D01*
X12863039Y-14564650D02*
X12843991Y-14536079D01*
X12843991Y-14536079D02*
X12834468Y-14517031D01*
X12834468Y-14517031D02*
X12824944Y-14488460D01*
X12824944Y-14488460D02*
X12815420Y-14440841D01*
X12815420Y-14440841D02*
X12815420Y-14402746D01*
X12815420Y-14402746D02*
X12824944Y-14355127D01*
X12824944Y-14355127D02*
X12834468Y-14326555D01*
X12834468Y-14326555D02*
X12843991Y-14307508D01*
X12843991Y-14307508D02*
X12863039Y-14278936D01*
X12863039Y-14278936D02*
X12872563Y-14269412D01*
X13053515Y-14497984D02*
X12939229Y-14497984D01*
X12996372Y-14497984D02*
X12996372Y-14297984D01*
X12996372Y-14297984D02*
X12977325Y-14326555D01*
X12977325Y-14326555D02*
X12958277Y-14345603D01*
X12958277Y-14345603D02*
X12939229Y-14355127D01*
X13243991Y-14497984D02*
X13129706Y-14497984D01*
X13186848Y-14497984D02*
X13186848Y-14297984D01*
X13186848Y-14297984D02*
X13167801Y-14326555D01*
X13167801Y-14326555D02*
X13148753Y-14345603D01*
X13148753Y-14345603D02*
X13129706Y-14355127D01*
X13415420Y-14297984D02*
X13377325Y-14297984D01*
X13377325Y-14297984D02*
X13358277Y-14307508D01*
X13358277Y-14307508D02*
X13348753Y-14317031D01*
X13348753Y-14317031D02*
X13329706Y-14345603D01*
X13329706Y-14345603D02*
X13320182Y-14383698D01*
X13320182Y-14383698D02*
X13320182Y-14459888D01*
X13320182Y-14459888D02*
X13329706Y-14478936D01*
X13329706Y-14478936D02*
X13339229Y-14488460D01*
X13339229Y-14488460D02*
X13358277Y-14497984D01*
X13358277Y-14497984D02*
X13396372Y-14497984D01*
X13396372Y-14497984D02*
X13415420Y-14488460D01*
X13415420Y-14488460D02*
X13424944Y-14478936D01*
X13424944Y-14478936D02*
X13434468Y-14459888D01*
X13434468Y-14459888D02*
X13434468Y-14412269D01*
X13434468Y-14412269D02*
X13424944Y-14393222D01*
X13424944Y-14393222D02*
X13415420Y-14383698D01*
X13415420Y-14383698D02*
X13396372Y-14374174D01*
X13396372Y-14374174D02*
X13358277Y-14374174D01*
X13358277Y-14374174D02*
X13339229Y-14383698D01*
X13339229Y-14383698D02*
X13329706Y-14393222D01*
X13329706Y-14393222D02*
X13320182Y-14412269D01*
X13672563Y-14497984D02*
X13672563Y-14297984D01*
X13758277Y-14497984D02*
X13758277Y-14393222D01*
X13758277Y-14393222D02*
X13748753Y-14374174D01*
X13748753Y-14374174D02*
X13729706Y-14364650D01*
X13729706Y-14364650D02*
X13701134Y-14364650D01*
X13701134Y-14364650D02*
X13682087Y-14374174D01*
X13682087Y-14374174D02*
X13672563Y-14383698D01*
X13882087Y-14497984D02*
X13863039Y-14488460D01*
X13863039Y-14488460D02*
X13853515Y-14478936D01*
X13853515Y-14478936D02*
X13843991Y-14459888D01*
X13843991Y-14459888D02*
X13843991Y-14402746D01*
X13843991Y-14402746D02*
X13853515Y-14383698D01*
X13853515Y-14383698D02*
X13863039Y-14374174D01*
X13863039Y-14374174D02*
X13882087Y-14364650D01*
X13882087Y-14364650D02*
X13910658Y-14364650D01*
X13910658Y-14364650D02*
X13929706Y-14374174D01*
X13929706Y-14374174D02*
X13939230Y-14383698D01*
X13939230Y-14383698D02*
X13948753Y-14402746D01*
X13948753Y-14402746D02*
X13948753Y-14459888D01*
X13948753Y-14459888D02*
X13939230Y-14478936D01*
X13939230Y-14478936D02*
X13929706Y-14488460D01*
X13929706Y-14488460D02*
X13910658Y-14497984D01*
X13910658Y-14497984D02*
X13882087Y-14497984D01*
X14063039Y-14497984D02*
X14043991Y-14488460D01*
X14043991Y-14488460D02*
X14034468Y-14469412D01*
X14034468Y-14469412D02*
X14034468Y-14297984D01*
X14215420Y-14488460D02*
X14196372Y-14497984D01*
X14196372Y-14497984D02*
X14158277Y-14497984D01*
X14158277Y-14497984D02*
X14139230Y-14488460D01*
X14139230Y-14488460D02*
X14129706Y-14469412D01*
X14129706Y-14469412D02*
X14129706Y-14393222D01*
X14129706Y-14393222D02*
X14139230Y-14374174D01*
X14139230Y-14374174D02*
X14158277Y-14364650D01*
X14158277Y-14364650D02*
X14196372Y-14364650D01*
X14196372Y-14364650D02*
X14215420Y-14374174D01*
X14215420Y-14374174D02*
X14224944Y-14393222D01*
X14224944Y-14393222D02*
X14224944Y-14412269D01*
X14224944Y-14412269D02*
X14129706Y-14431317D01*
X14301134Y-14488460D02*
X14320182Y-14497984D01*
X14320182Y-14497984D02*
X14358277Y-14497984D01*
X14358277Y-14497984D02*
X14377325Y-14488460D01*
X14377325Y-14488460D02*
X14386849Y-14469412D01*
X14386849Y-14469412D02*
X14386849Y-14459888D01*
X14386849Y-14459888D02*
X14377325Y-14440841D01*
X14377325Y-14440841D02*
X14358277Y-14431317D01*
X14358277Y-14431317D02*
X14329706Y-14431317D01*
X14329706Y-14431317D02*
X14310658Y-14421793D01*
X14310658Y-14421793D02*
X14301134Y-14402746D01*
X14301134Y-14402746D02*
X14301134Y-14393222D01*
X14301134Y-14393222D02*
X14310658Y-14374174D01*
X14310658Y-14374174D02*
X14329706Y-14364650D01*
X14329706Y-14364650D02*
X14358277Y-14364650D01*
X14358277Y-14364650D02*
X14377325Y-14374174D01*
X14453515Y-14574174D02*
X14463039Y-14564650D01*
X14463039Y-14564650D02*
X14482087Y-14536079D01*
X14482087Y-14536079D02*
X14491611Y-14517031D01*
X14491611Y-14517031D02*
X14501134Y-14488460D01*
X14501134Y-14488460D02*
X14510658Y-14440841D01*
X14510658Y-14440841D02*
X14510658Y-14402746D01*
X14510658Y-14402746D02*
X14501134Y-14355127D01*
X14501134Y-14355127D02*
X14491611Y-14326555D01*
X14491611Y-14326555D02*
X14482087Y-14307508D01*
X14482087Y-14307508D02*
X14463039Y-14278936D01*
X14463039Y-14278936D02*
X14453515Y-14269412D01*
D12*
X9252500Y-14625500D02*
X9252500Y-14715500D01*
X9207500Y-14670500D02*
X9297500Y-14670500D01*
D11*
X9596372Y-14561984D02*
X9615420Y-14561984D01*
X9615420Y-14561984D02*
X9634467Y-14571508D01*
X9634467Y-14571508D02*
X9643991Y-14581031D01*
X9643991Y-14581031D02*
X9653515Y-14600079D01*
X9653515Y-14600079D02*
X9663039Y-14638174D01*
X9663039Y-14638174D02*
X9663039Y-14685793D01*
X9663039Y-14685793D02*
X9653515Y-14723888D01*
X9653515Y-14723888D02*
X9643991Y-14742936D01*
X9643991Y-14742936D02*
X9634467Y-14752460D01*
X9634467Y-14752460D02*
X9615420Y-14761984D01*
X9615420Y-14761984D02*
X9596372Y-14761984D01*
X9596372Y-14761984D02*
X9577324Y-14752460D01*
X9577324Y-14752460D02*
X9567801Y-14742936D01*
X9567801Y-14742936D02*
X9558277Y-14723888D01*
X9558277Y-14723888D02*
X9548753Y-14685793D01*
X9548753Y-14685793D02*
X9548753Y-14638174D01*
X9548753Y-14638174D02*
X9558277Y-14600079D01*
X9558277Y-14600079D02*
X9567801Y-14581031D01*
X9567801Y-14581031D02*
X9577324Y-14571508D01*
X9577324Y-14571508D02*
X9596372Y-14561984D01*
X9748753Y-14742936D02*
X9758277Y-14752460D01*
X9758277Y-14752460D02*
X9748753Y-14761984D01*
X9748753Y-14761984D02*
X9739229Y-14752460D01*
X9739229Y-14752460D02*
X9748753Y-14742936D01*
X9748753Y-14742936D02*
X9748753Y-14761984D01*
X9853515Y-14761984D02*
X9891610Y-14761984D01*
X9891610Y-14761984D02*
X9910658Y-14752460D01*
X9910658Y-14752460D02*
X9920182Y-14742936D01*
X9920182Y-14742936D02*
X9939229Y-14714365D01*
X9939229Y-14714365D02*
X9948753Y-14676269D01*
X9948753Y-14676269D02*
X9948753Y-14600079D01*
X9948753Y-14600079D02*
X9939229Y-14581031D01*
X9939229Y-14581031D02*
X9929705Y-14571508D01*
X9929705Y-14571508D02*
X9910658Y-14561984D01*
X9910658Y-14561984D02*
X9872563Y-14561984D01*
X9872563Y-14561984D02*
X9853515Y-14571508D01*
X9853515Y-14571508D02*
X9843991Y-14581031D01*
X9843991Y-14581031D02*
X9834467Y-14600079D01*
X9834467Y-14600079D02*
X9834467Y-14647698D01*
X9834467Y-14647698D02*
X9843991Y-14666746D01*
X9843991Y-14666746D02*
X9853515Y-14676269D01*
X9853515Y-14676269D02*
X9872563Y-14685793D01*
X9872563Y-14685793D02*
X9910658Y-14685793D01*
X9910658Y-14685793D02*
X9929705Y-14676269D01*
X9929705Y-14676269D02*
X9939229Y-14666746D01*
X9939229Y-14666746D02*
X9948753Y-14647698D01*
X10072563Y-14561984D02*
X10091610Y-14561984D01*
X10091610Y-14561984D02*
X10110658Y-14571508D01*
X10110658Y-14571508D02*
X10120182Y-14581031D01*
X10120182Y-14581031D02*
X10129705Y-14600079D01*
X10129705Y-14600079D02*
X10139229Y-14638174D01*
X10139229Y-14638174D02*
X10139229Y-14685793D01*
X10139229Y-14685793D02*
X10129705Y-14723888D01*
X10129705Y-14723888D02*
X10120182Y-14742936D01*
X10120182Y-14742936D02*
X10110658Y-14752460D01*
X10110658Y-14752460D02*
X10091610Y-14761984D01*
X10091610Y-14761984D02*
X10072563Y-14761984D01*
X10072563Y-14761984D02*
X10053515Y-14752460D01*
X10053515Y-14752460D02*
X10043991Y-14742936D01*
X10043991Y-14742936D02*
X10034467Y-14723888D01*
X10034467Y-14723888D02*
X10024944Y-14685793D01*
X10024944Y-14685793D02*
X10024944Y-14638174D01*
X10024944Y-14638174D02*
X10034467Y-14600079D01*
X10034467Y-14600079D02*
X10043991Y-14581031D01*
X10043991Y-14581031D02*
X10053515Y-14571508D01*
X10053515Y-14571508D02*
X10072563Y-14561984D01*
X10263039Y-14561984D02*
X10282086Y-14561984D01*
X10282086Y-14561984D02*
X10301134Y-14571508D01*
X10301134Y-14571508D02*
X10310658Y-14581031D01*
X10310658Y-14581031D02*
X10320182Y-14600079D01*
X10320182Y-14600079D02*
X10329705Y-14638174D01*
X10329705Y-14638174D02*
X10329705Y-14685793D01*
X10329705Y-14685793D02*
X10320182Y-14723888D01*
X10320182Y-14723888D02*
X10310658Y-14742936D01*
X10310658Y-14742936D02*
X10301134Y-14752460D01*
X10301134Y-14752460D02*
X10282086Y-14761984D01*
X10282086Y-14761984D02*
X10263039Y-14761984D01*
X10263039Y-14761984D02*
X10243991Y-14752460D01*
X10243991Y-14752460D02*
X10234467Y-14742936D01*
X10234467Y-14742936D02*
X10224944Y-14723888D01*
X10224944Y-14723888D02*
X10215420Y-14685793D01*
X10215420Y-14685793D02*
X10215420Y-14638174D01*
X10215420Y-14638174D02*
X10224944Y-14600079D01*
X10224944Y-14600079D02*
X10234467Y-14581031D01*
X10234467Y-14581031D02*
X10243991Y-14571508D01*
X10243991Y-14571508D02*
X10263039Y-14561984D01*
X10415420Y-14761984D02*
X10415420Y-14628650D01*
X10415420Y-14647698D02*
X10424944Y-14638174D01*
X10424944Y-14638174D02*
X10443991Y-14628650D01*
X10443991Y-14628650D02*
X10472563Y-14628650D01*
X10472563Y-14628650D02*
X10491610Y-14638174D01*
X10491610Y-14638174D02*
X10501134Y-14657222D01*
X10501134Y-14657222D02*
X10501134Y-14761984D01*
X10501134Y-14657222D02*
X10510658Y-14638174D01*
X10510658Y-14638174D02*
X10529705Y-14628650D01*
X10529705Y-14628650D02*
X10558277Y-14628650D01*
X10558277Y-14628650D02*
X10577325Y-14638174D01*
X10577325Y-14638174D02*
X10586848Y-14657222D01*
X10586848Y-14657222D02*
X10586848Y-14761984D01*
X10682086Y-14761984D02*
X10682086Y-14628650D01*
X10682086Y-14647698D02*
X10691610Y-14638174D01*
X10691610Y-14638174D02*
X10710658Y-14628650D01*
X10710658Y-14628650D02*
X10739229Y-14628650D01*
X10739229Y-14628650D02*
X10758277Y-14638174D01*
X10758277Y-14638174D02*
X10767801Y-14657222D01*
X10767801Y-14657222D02*
X10767801Y-14761984D01*
X10767801Y-14657222D02*
X10777325Y-14638174D01*
X10777325Y-14638174D02*
X10796372Y-14628650D01*
X10796372Y-14628650D02*
X10824944Y-14628650D01*
X10824944Y-14628650D02*
X10843991Y-14638174D01*
X10843991Y-14638174D02*
X10853515Y-14657222D01*
X10853515Y-14657222D02*
X10853515Y-14761984D01*
X11243991Y-14552460D02*
X11072563Y-14809603D01*
X11501134Y-14561984D02*
X11520182Y-14561984D01*
X11520182Y-14561984D02*
X11539229Y-14571508D01*
X11539229Y-14571508D02*
X11548753Y-14581031D01*
X11548753Y-14581031D02*
X11558277Y-14600079D01*
X11558277Y-14600079D02*
X11567801Y-14638174D01*
X11567801Y-14638174D02*
X11567801Y-14685793D01*
X11567801Y-14685793D02*
X11558277Y-14723888D01*
X11558277Y-14723888D02*
X11548753Y-14742936D01*
X11548753Y-14742936D02*
X11539229Y-14752460D01*
X11539229Y-14752460D02*
X11520182Y-14761984D01*
X11520182Y-14761984D02*
X11501134Y-14761984D01*
X11501134Y-14761984D02*
X11482086Y-14752460D01*
X11482086Y-14752460D02*
X11472563Y-14742936D01*
X11472563Y-14742936D02*
X11463039Y-14723888D01*
X11463039Y-14723888D02*
X11453515Y-14685793D01*
X11453515Y-14685793D02*
X11453515Y-14638174D01*
X11453515Y-14638174D02*
X11463039Y-14600079D01*
X11463039Y-14600079D02*
X11472563Y-14581031D01*
X11472563Y-14581031D02*
X11482086Y-14571508D01*
X11482086Y-14571508D02*
X11501134Y-14561984D01*
X11653515Y-14742936D02*
X11663039Y-14752460D01*
X11663039Y-14752460D02*
X11653515Y-14761984D01*
X11653515Y-14761984D02*
X11643991Y-14752460D01*
X11643991Y-14752460D02*
X11653515Y-14742936D01*
X11653515Y-14742936D02*
X11653515Y-14761984D01*
X11786848Y-14561984D02*
X11805896Y-14561984D01*
X11805896Y-14561984D02*
X11824944Y-14571508D01*
X11824944Y-14571508D02*
X11834467Y-14581031D01*
X11834467Y-14581031D02*
X11843991Y-14600079D01*
X11843991Y-14600079D02*
X11853515Y-14638174D01*
X11853515Y-14638174D02*
X11853515Y-14685793D01*
X11853515Y-14685793D02*
X11843991Y-14723888D01*
X11843991Y-14723888D02*
X11834467Y-14742936D01*
X11834467Y-14742936D02*
X11824944Y-14752460D01*
X11824944Y-14752460D02*
X11805896Y-14761984D01*
X11805896Y-14761984D02*
X11786848Y-14761984D01*
X11786848Y-14761984D02*
X11767801Y-14752460D01*
X11767801Y-14752460D02*
X11758277Y-14742936D01*
X11758277Y-14742936D02*
X11748753Y-14723888D01*
X11748753Y-14723888D02*
X11739229Y-14685793D01*
X11739229Y-14685793D02*
X11739229Y-14638174D01*
X11739229Y-14638174D02*
X11748753Y-14600079D01*
X11748753Y-14600079D02*
X11758277Y-14581031D01*
X11758277Y-14581031D02*
X11767801Y-14571508D01*
X11767801Y-14571508D02*
X11786848Y-14561984D01*
X11920182Y-14561984D02*
X12043991Y-14561984D01*
X12043991Y-14561984D02*
X11977325Y-14638174D01*
X11977325Y-14638174D02*
X12005896Y-14638174D01*
X12005896Y-14638174D02*
X12024944Y-14647698D01*
X12024944Y-14647698D02*
X12034467Y-14657222D01*
X12034467Y-14657222D02*
X12043991Y-14676269D01*
X12043991Y-14676269D02*
X12043991Y-14723888D01*
X12043991Y-14723888D02*
X12034467Y-14742936D01*
X12034467Y-14742936D02*
X12024944Y-14752460D01*
X12024944Y-14752460D02*
X12005896Y-14761984D01*
X12005896Y-14761984D02*
X11948753Y-14761984D01*
X11948753Y-14761984D02*
X11929706Y-14752460D01*
X11929706Y-14752460D02*
X11920182Y-14742936D01*
X12224944Y-14561984D02*
X12129706Y-14561984D01*
X12129706Y-14561984D02*
X12120182Y-14657222D01*
X12120182Y-14657222D02*
X12129706Y-14647698D01*
X12129706Y-14647698D02*
X12148753Y-14638174D01*
X12148753Y-14638174D02*
X12196372Y-14638174D01*
X12196372Y-14638174D02*
X12215420Y-14647698D01*
X12215420Y-14647698D02*
X12224944Y-14657222D01*
X12224944Y-14657222D02*
X12234467Y-14676269D01*
X12234467Y-14676269D02*
X12234467Y-14723888D01*
X12234467Y-14723888D02*
X12224944Y-14742936D01*
X12224944Y-14742936D02*
X12215420Y-14752460D01*
X12215420Y-14752460D02*
X12196372Y-14761984D01*
X12196372Y-14761984D02*
X12148753Y-14761984D01*
X12148753Y-14761984D02*
X12129706Y-14752460D01*
X12129706Y-14752460D02*
X12120182Y-14742936D01*
X12405896Y-14628650D02*
X12405896Y-14761984D01*
X12358277Y-14552460D02*
X12310658Y-14695317D01*
X12310658Y-14695317D02*
X12434467Y-14695317D01*
X12501134Y-14561984D02*
X12501134Y-14600079D01*
X12577325Y-14561984D02*
X12577325Y-14600079D01*
X12872563Y-14838174D02*
X12863039Y-14828650D01*
X12863039Y-14828650D02*
X12843991Y-14800079D01*
X12843991Y-14800079D02*
X12834468Y-14781031D01*
X12834468Y-14781031D02*
X12824944Y-14752460D01*
X12824944Y-14752460D02*
X12815420Y-14704841D01*
X12815420Y-14704841D02*
X12815420Y-14666746D01*
X12815420Y-14666746D02*
X12824944Y-14619127D01*
X12824944Y-14619127D02*
X12834468Y-14590555D01*
X12834468Y-14590555D02*
X12843991Y-14571508D01*
X12843991Y-14571508D02*
X12863039Y-14542936D01*
X12863039Y-14542936D02*
X12872563Y-14533412D01*
X13034468Y-14628650D02*
X13034468Y-14761984D01*
X12986848Y-14552460D02*
X12939229Y-14695317D01*
X12939229Y-14695317D02*
X13063039Y-14695317D01*
X13291610Y-14761984D02*
X13291610Y-14561984D01*
X13377325Y-14761984D02*
X13377325Y-14657222D01*
X13377325Y-14657222D02*
X13367801Y-14638174D01*
X13367801Y-14638174D02*
X13348753Y-14628650D01*
X13348753Y-14628650D02*
X13320182Y-14628650D01*
X13320182Y-14628650D02*
X13301134Y-14638174D01*
X13301134Y-14638174D02*
X13291610Y-14647698D01*
X13501134Y-14761984D02*
X13482087Y-14752460D01*
X13482087Y-14752460D02*
X13472563Y-14742936D01*
X13472563Y-14742936D02*
X13463039Y-14723888D01*
X13463039Y-14723888D02*
X13463039Y-14666746D01*
X13463039Y-14666746D02*
X13472563Y-14647698D01*
X13472563Y-14647698D02*
X13482087Y-14638174D01*
X13482087Y-14638174D02*
X13501134Y-14628650D01*
X13501134Y-14628650D02*
X13529706Y-14628650D01*
X13529706Y-14628650D02*
X13548753Y-14638174D01*
X13548753Y-14638174D02*
X13558277Y-14647698D01*
X13558277Y-14647698D02*
X13567801Y-14666746D01*
X13567801Y-14666746D02*
X13567801Y-14723888D01*
X13567801Y-14723888D02*
X13558277Y-14742936D01*
X13558277Y-14742936D02*
X13548753Y-14752460D01*
X13548753Y-14752460D02*
X13529706Y-14761984D01*
X13529706Y-14761984D02*
X13501134Y-14761984D01*
X13682087Y-14761984D02*
X13663039Y-14752460D01*
X13663039Y-14752460D02*
X13653515Y-14733412D01*
X13653515Y-14733412D02*
X13653515Y-14561984D01*
X13834468Y-14752460D02*
X13815420Y-14761984D01*
X13815420Y-14761984D02*
X13777325Y-14761984D01*
X13777325Y-14761984D02*
X13758277Y-14752460D01*
X13758277Y-14752460D02*
X13748753Y-14733412D01*
X13748753Y-14733412D02*
X13748753Y-14657222D01*
X13748753Y-14657222D02*
X13758277Y-14638174D01*
X13758277Y-14638174D02*
X13777325Y-14628650D01*
X13777325Y-14628650D02*
X13815420Y-14628650D01*
X13815420Y-14628650D02*
X13834468Y-14638174D01*
X13834468Y-14638174D02*
X13843991Y-14657222D01*
X13843991Y-14657222D02*
X13843991Y-14676269D01*
X13843991Y-14676269D02*
X13748753Y-14695317D01*
X13920182Y-14752460D02*
X13939230Y-14761984D01*
X13939230Y-14761984D02*
X13977325Y-14761984D01*
X13977325Y-14761984D02*
X13996372Y-14752460D01*
X13996372Y-14752460D02*
X14005896Y-14733412D01*
X14005896Y-14733412D02*
X14005896Y-14723888D01*
X14005896Y-14723888D02*
X13996372Y-14704841D01*
X13996372Y-14704841D02*
X13977325Y-14695317D01*
X13977325Y-14695317D02*
X13948753Y-14695317D01*
X13948753Y-14695317D02*
X13929706Y-14685793D01*
X13929706Y-14685793D02*
X13920182Y-14666746D01*
X13920182Y-14666746D02*
X13920182Y-14657222D01*
X13920182Y-14657222D02*
X13929706Y-14638174D01*
X13929706Y-14638174D02*
X13948753Y-14628650D01*
X13948753Y-14628650D02*
X13977325Y-14628650D01*
X13977325Y-14628650D02*
X13996372Y-14638174D01*
X14072563Y-14838174D02*
X14082087Y-14828650D01*
X14082087Y-14828650D02*
X14101134Y-14800079D01*
X14101134Y-14800079D02*
X14110658Y-14781031D01*
X14110658Y-14781031D02*
X14120182Y-14752460D01*
X14120182Y-14752460D02*
X14129706Y-14704841D01*
X14129706Y-14704841D02*
X14129706Y-14666746D01*
X14129706Y-14666746D02*
X14120182Y-14619127D01*
X14120182Y-14619127D02*
X14110658Y-14590555D01*
X14110658Y-14590555D02*
X14101134Y-14571508D01*
X14101134Y-14571508D02*
X14082087Y-14542936D01*
X14082087Y-14542936D02*
X14072563Y-14533412D01*
D12*
X9282856Y-14969856D02*
X9282856Y-14899144D01*
X9212144Y-14899144D01*
X9212144Y-14969856D01*
X9282856Y-14969856D01*
D11*
X9663039Y-15025984D02*
X9548753Y-15025984D01*
X9605896Y-15025984D02*
X9605896Y-14825984D01*
X9605896Y-14825984D02*
X9586848Y-14854555D01*
X9586848Y-14854555D02*
X9567801Y-14873603D01*
X9567801Y-14873603D02*
X9548753Y-14883127D01*
X9748753Y-15006936D02*
X9758277Y-15016460D01*
X9758277Y-15016460D02*
X9748753Y-15025984D01*
X9748753Y-15025984D02*
X9739229Y-15016460D01*
X9739229Y-15016460D02*
X9748753Y-15006936D01*
X9748753Y-15006936D02*
X9748753Y-15025984D01*
X9882086Y-14825984D02*
X9901134Y-14825984D01*
X9901134Y-14825984D02*
X9920182Y-14835508D01*
X9920182Y-14835508D02*
X9929705Y-14845031D01*
X9929705Y-14845031D02*
X9939229Y-14864079D01*
X9939229Y-14864079D02*
X9948753Y-14902174D01*
X9948753Y-14902174D02*
X9948753Y-14949793D01*
X9948753Y-14949793D02*
X9939229Y-14987888D01*
X9939229Y-14987888D02*
X9929705Y-15006936D01*
X9929705Y-15006936D02*
X9920182Y-15016460D01*
X9920182Y-15016460D02*
X9901134Y-15025984D01*
X9901134Y-15025984D02*
X9882086Y-15025984D01*
X9882086Y-15025984D02*
X9863039Y-15016460D01*
X9863039Y-15016460D02*
X9853515Y-15006936D01*
X9853515Y-15006936D02*
X9843991Y-14987888D01*
X9843991Y-14987888D02*
X9834467Y-14949793D01*
X9834467Y-14949793D02*
X9834467Y-14902174D01*
X9834467Y-14902174D02*
X9843991Y-14864079D01*
X9843991Y-14864079D02*
X9853515Y-14845031D01*
X9853515Y-14845031D02*
X9863039Y-14835508D01*
X9863039Y-14835508D02*
X9882086Y-14825984D01*
X10072563Y-14825984D02*
X10091610Y-14825984D01*
X10091610Y-14825984D02*
X10110658Y-14835508D01*
X10110658Y-14835508D02*
X10120182Y-14845031D01*
X10120182Y-14845031D02*
X10129705Y-14864079D01*
X10129705Y-14864079D02*
X10139229Y-14902174D01*
X10139229Y-14902174D02*
X10139229Y-14949793D01*
X10139229Y-14949793D02*
X10129705Y-14987888D01*
X10129705Y-14987888D02*
X10120182Y-15006936D01*
X10120182Y-15006936D02*
X10110658Y-15016460D01*
X10110658Y-15016460D02*
X10091610Y-15025984D01*
X10091610Y-15025984D02*
X10072563Y-15025984D01*
X10072563Y-15025984D02*
X10053515Y-15016460D01*
X10053515Y-15016460D02*
X10043991Y-15006936D01*
X10043991Y-15006936D02*
X10034467Y-14987888D01*
X10034467Y-14987888D02*
X10024944Y-14949793D01*
X10024944Y-14949793D02*
X10024944Y-14902174D01*
X10024944Y-14902174D02*
X10034467Y-14864079D01*
X10034467Y-14864079D02*
X10043991Y-14845031D01*
X10043991Y-14845031D02*
X10053515Y-14835508D01*
X10053515Y-14835508D02*
X10072563Y-14825984D01*
X10263039Y-14825984D02*
X10282086Y-14825984D01*
X10282086Y-14825984D02*
X10301134Y-14835508D01*
X10301134Y-14835508D02*
X10310658Y-14845031D01*
X10310658Y-14845031D02*
X10320182Y-14864079D01*
X10320182Y-14864079D02*
X10329705Y-14902174D01*
X10329705Y-14902174D02*
X10329705Y-14949793D01*
X10329705Y-14949793D02*
X10320182Y-14987888D01*
X10320182Y-14987888D02*
X10310658Y-15006936D01*
X10310658Y-15006936D02*
X10301134Y-15016460D01*
X10301134Y-15016460D02*
X10282086Y-15025984D01*
X10282086Y-15025984D02*
X10263039Y-15025984D01*
X10263039Y-15025984D02*
X10243991Y-15016460D01*
X10243991Y-15016460D02*
X10234467Y-15006936D01*
X10234467Y-15006936D02*
X10224944Y-14987888D01*
X10224944Y-14987888D02*
X10215420Y-14949793D01*
X10215420Y-14949793D02*
X10215420Y-14902174D01*
X10215420Y-14902174D02*
X10224944Y-14864079D01*
X10224944Y-14864079D02*
X10234467Y-14845031D01*
X10234467Y-14845031D02*
X10243991Y-14835508D01*
X10243991Y-14835508D02*
X10263039Y-14825984D01*
X10415420Y-15025984D02*
X10415420Y-14892650D01*
X10415420Y-14911698D02*
X10424944Y-14902174D01*
X10424944Y-14902174D02*
X10443991Y-14892650D01*
X10443991Y-14892650D02*
X10472563Y-14892650D01*
X10472563Y-14892650D02*
X10491610Y-14902174D01*
X10491610Y-14902174D02*
X10501134Y-14921222D01*
X10501134Y-14921222D02*
X10501134Y-15025984D01*
X10501134Y-14921222D02*
X10510658Y-14902174D01*
X10510658Y-14902174D02*
X10529705Y-14892650D01*
X10529705Y-14892650D02*
X10558277Y-14892650D01*
X10558277Y-14892650D02*
X10577325Y-14902174D01*
X10577325Y-14902174D02*
X10586848Y-14921222D01*
X10586848Y-14921222D02*
X10586848Y-15025984D01*
X10682086Y-15025984D02*
X10682086Y-14892650D01*
X10682086Y-14911698D02*
X10691610Y-14902174D01*
X10691610Y-14902174D02*
X10710658Y-14892650D01*
X10710658Y-14892650D02*
X10739229Y-14892650D01*
X10739229Y-14892650D02*
X10758277Y-14902174D01*
X10758277Y-14902174D02*
X10767801Y-14921222D01*
X10767801Y-14921222D02*
X10767801Y-15025984D01*
X10767801Y-14921222D02*
X10777325Y-14902174D01*
X10777325Y-14902174D02*
X10796372Y-14892650D01*
X10796372Y-14892650D02*
X10824944Y-14892650D01*
X10824944Y-14892650D02*
X10843991Y-14902174D01*
X10843991Y-14902174D02*
X10853515Y-14921222D01*
X10853515Y-14921222D02*
X10853515Y-15025984D01*
X11243991Y-14816460D02*
X11072563Y-15073603D01*
X11501134Y-14825984D02*
X11520182Y-14825984D01*
X11520182Y-14825984D02*
X11539229Y-14835508D01*
X11539229Y-14835508D02*
X11548753Y-14845031D01*
X11548753Y-14845031D02*
X11558277Y-14864079D01*
X11558277Y-14864079D02*
X11567801Y-14902174D01*
X11567801Y-14902174D02*
X11567801Y-14949793D01*
X11567801Y-14949793D02*
X11558277Y-14987888D01*
X11558277Y-14987888D02*
X11548753Y-15006936D01*
X11548753Y-15006936D02*
X11539229Y-15016460D01*
X11539229Y-15016460D02*
X11520182Y-15025984D01*
X11520182Y-15025984D02*
X11501134Y-15025984D01*
X11501134Y-15025984D02*
X11482086Y-15016460D01*
X11482086Y-15016460D02*
X11472563Y-15006936D01*
X11472563Y-15006936D02*
X11463039Y-14987888D01*
X11463039Y-14987888D02*
X11453515Y-14949793D01*
X11453515Y-14949793D02*
X11453515Y-14902174D01*
X11453515Y-14902174D02*
X11463039Y-14864079D01*
X11463039Y-14864079D02*
X11472563Y-14845031D01*
X11472563Y-14845031D02*
X11482086Y-14835508D01*
X11482086Y-14835508D02*
X11501134Y-14825984D01*
X11653515Y-15006936D02*
X11663039Y-15016460D01*
X11663039Y-15016460D02*
X11653515Y-15025984D01*
X11653515Y-15025984D02*
X11643991Y-15016460D01*
X11643991Y-15016460D02*
X11653515Y-15006936D01*
X11653515Y-15006936D02*
X11653515Y-15025984D01*
X11786848Y-14825984D02*
X11805896Y-14825984D01*
X11805896Y-14825984D02*
X11824944Y-14835508D01*
X11824944Y-14835508D02*
X11834467Y-14845031D01*
X11834467Y-14845031D02*
X11843991Y-14864079D01*
X11843991Y-14864079D02*
X11853515Y-14902174D01*
X11853515Y-14902174D02*
X11853515Y-14949793D01*
X11853515Y-14949793D02*
X11843991Y-14987888D01*
X11843991Y-14987888D02*
X11834467Y-15006936D01*
X11834467Y-15006936D02*
X11824944Y-15016460D01*
X11824944Y-15016460D02*
X11805896Y-15025984D01*
X11805896Y-15025984D02*
X11786848Y-15025984D01*
X11786848Y-15025984D02*
X11767801Y-15016460D01*
X11767801Y-15016460D02*
X11758277Y-15006936D01*
X11758277Y-15006936D02*
X11748753Y-14987888D01*
X11748753Y-14987888D02*
X11739229Y-14949793D01*
X11739229Y-14949793D02*
X11739229Y-14902174D01*
X11739229Y-14902174D02*
X11748753Y-14864079D01*
X11748753Y-14864079D02*
X11758277Y-14845031D01*
X11758277Y-14845031D02*
X11767801Y-14835508D01*
X11767801Y-14835508D02*
X11786848Y-14825984D01*
X11920182Y-14825984D02*
X12043991Y-14825984D01*
X12043991Y-14825984D02*
X11977325Y-14902174D01*
X11977325Y-14902174D02*
X12005896Y-14902174D01*
X12005896Y-14902174D02*
X12024944Y-14911698D01*
X12024944Y-14911698D02*
X12034467Y-14921222D01*
X12034467Y-14921222D02*
X12043991Y-14940269D01*
X12043991Y-14940269D02*
X12043991Y-14987888D01*
X12043991Y-14987888D02*
X12034467Y-15006936D01*
X12034467Y-15006936D02*
X12024944Y-15016460D01*
X12024944Y-15016460D02*
X12005896Y-15025984D01*
X12005896Y-15025984D02*
X11948753Y-15025984D01*
X11948753Y-15025984D02*
X11929706Y-15016460D01*
X11929706Y-15016460D02*
X11920182Y-15006936D01*
X12139229Y-15025984D02*
X12177325Y-15025984D01*
X12177325Y-15025984D02*
X12196372Y-15016460D01*
X12196372Y-15016460D02*
X12205896Y-15006936D01*
X12205896Y-15006936D02*
X12224944Y-14978365D01*
X12224944Y-14978365D02*
X12234467Y-14940269D01*
X12234467Y-14940269D02*
X12234467Y-14864079D01*
X12234467Y-14864079D02*
X12224944Y-14845031D01*
X12224944Y-14845031D02*
X12215420Y-14835508D01*
X12215420Y-14835508D02*
X12196372Y-14825984D01*
X12196372Y-14825984D02*
X12158277Y-14825984D01*
X12158277Y-14825984D02*
X12139229Y-14835508D01*
X12139229Y-14835508D02*
X12129706Y-14845031D01*
X12129706Y-14845031D02*
X12120182Y-14864079D01*
X12120182Y-14864079D02*
X12120182Y-14911698D01*
X12120182Y-14911698D02*
X12129706Y-14930746D01*
X12129706Y-14930746D02*
X12139229Y-14940269D01*
X12139229Y-14940269D02*
X12158277Y-14949793D01*
X12158277Y-14949793D02*
X12196372Y-14949793D01*
X12196372Y-14949793D02*
X12215420Y-14940269D01*
X12215420Y-14940269D02*
X12224944Y-14930746D01*
X12224944Y-14930746D02*
X12234467Y-14911698D01*
X12405896Y-14892650D02*
X12405896Y-15025984D01*
X12358277Y-14816460D02*
X12310658Y-14959317D01*
X12310658Y-14959317D02*
X12434467Y-14959317D01*
X12501134Y-14825984D02*
X12501134Y-14864079D01*
X12577325Y-14825984D02*
X12577325Y-14864079D01*
X12872563Y-15102174D02*
X12863039Y-15092650D01*
X12863039Y-15092650D02*
X12843991Y-15064079D01*
X12843991Y-15064079D02*
X12834468Y-15045031D01*
X12834468Y-15045031D02*
X12824944Y-15016460D01*
X12824944Y-15016460D02*
X12815420Y-14968841D01*
X12815420Y-14968841D02*
X12815420Y-14930746D01*
X12815420Y-14930746D02*
X12824944Y-14883127D01*
X12824944Y-14883127D02*
X12834468Y-14854555D01*
X12834468Y-14854555D02*
X12843991Y-14835508D01*
X12843991Y-14835508D02*
X12863039Y-14806936D01*
X12863039Y-14806936D02*
X12872563Y-14797412D01*
X12977325Y-14911698D02*
X12958277Y-14902174D01*
X12958277Y-14902174D02*
X12948753Y-14892650D01*
X12948753Y-14892650D02*
X12939229Y-14873603D01*
X12939229Y-14873603D02*
X12939229Y-14864079D01*
X12939229Y-14864079D02*
X12948753Y-14845031D01*
X12948753Y-14845031D02*
X12958277Y-14835508D01*
X12958277Y-14835508D02*
X12977325Y-14825984D01*
X12977325Y-14825984D02*
X13015420Y-14825984D01*
X13015420Y-14825984D02*
X13034468Y-14835508D01*
X13034468Y-14835508D02*
X13043991Y-14845031D01*
X13043991Y-14845031D02*
X13053515Y-14864079D01*
X13053515Y-14864079D02*
X13053515Y-14873603D01*
X13053515Y-14873603D02*
X13043991Y-14892650D01*
X13043991Y-14892650D02*
X13034468Y-14902174D01*
X13034468Y-14902174D02*
X13015420Y-14911698D01*
X13015420Y-14911698D02*
X12977325Y-14911698D01*
X12977325Y-14911698D02*
X12958277Y-14921222D01*
X12958277Y-14921222D02*
X12948753Y-14930746D01*
X12948753Y-14930746D02*
X12939229Y-14949793D01*
X12939229Y-14949793D02*
X12939229Y-14987888D01*
X12939229Y-14987888D02*
X12948753Y-15006936D01*
X12948753Y-15006936D02*
X12958277Y-15016460D01*
X12958277Y-15016460D02*
X12977325Y-15025984D01*
X12977325Y-15025984D02*
X13015420Y-15025984D01*
X13015420Y-15025984D02*
X13034468Y-15016460D01*
X13034468Y-15016460D02*
X13043991Y-15006936D01*
X13043991Y-15006936D02*
X13053515Y-14987888D01*
X13053515Y-14987888D02*
X13053515Y-14949793D01*
X13053515Y-14949793D02*
X13043991Y-14930746D01*
X13043991Y-14930746D02*
X13034468Y-14921222D01*
X13034468Y-14921222D02*
X13015420Y-14911698D01*
X13291610Y-15025984D02*
X13291610Y-14825984D01*
X13377325Y-15025984D02*
X13377325Y-14921222D01*
X13377325Y-14921222D02*
X13367801Y-14902174D01*
X13367801Y-14902174D02*
X13348753Y-14892650D01*
X13348753Y-14892650D02*
X13320182Y-14892650D01*
X13320182Y-14892650D02*
X13301134Y-14902174D01*
X13301134Y-14902174D02*
X13291610Y-14911698D01*
X13501134Y-15025984D02*
X13482087Y-15016460D01*
X13482087Y-15016460D02*
X13472563Y-15006936D01*
X13472563Y-15006936D02*
X13463039Y-14987888D01*
X13463039Y-14987888D02*
X13463039Y-14930746D01*
X13463039Y-14930746D02*
X13472563Y-14911698D01*
X13472563Y-14911698D02*
X13482087Y-14902174D01*
X13482087Y-14902174D02*
X13501134Y-14892650D01*
X13501134Y-14892650D02*
X13529706Y-14892650D01*
X13529706Y-14892650D02*
X13548753Y-14902174D01*
X13548753Y-14902174D02*
X13558277Y-14911698D01*
X13558277Y-14911698D02*
X13567801Y-14930746D01*
X13567801Y-14930746D02*
X13567801Y-14987888D01*
X13567801Y-14987888D02*
X13558277Y-15006936D01*
X13558277Y-15006936D02*
X13548753Y-15016460D01*
X13548753Y-15016460D02*
X13529706Y-15025984D01*
X13529706Y-15025984D02*
X13501134Y-15025984D01*
X13682087Y-15025984D02*
X13663039Y-15016460D01*
X13663039Y-15016460D02*
X13653515Y-14997412D01*
X13653515Y-14997412D02*
X13653515Y-14825984D01*
X13834468Y-15016460D02*
X13815420Y-15025984D01*
X13815420Y-15025984D02*
X13777325Y-15025984D01*
X13777325Y-15025984D02*
X13758277Y-15016460D01*
X13758277Y-15016460D02*
X13748753Y-14997412D01*
X13748753Y-14997412D02*
X13748753Y-14921222D01*
X13748753Y-14921222D02*
X13758277Y-14902174D01*
X13758277Y-14902174D02*
X13777325Y-14892650D01*
X13777325Y-14892650D02*
X13815420Y-14892650D01*
X13815420Y-14892650D02*
X13834468Y-14902174D01*
X13834468Y-14902174D02*
X13843991Y-14921222D01*
X13843991Y-14921222D02*
X13843991Y-14940269D01*
X13843991Y-14940269D02*
X13748753Y-14959317D01*
X13920182Y-15016460D02*
X13939230Y-15025984D01*
X13939230Y-15025984D02*
X13977325Y-15025984D01*
X13977325Y-15025984D02*
X13996372Y-15016460D01*
X13996372Y-15016460D02*
X14005896Y-14997412D01*
X14005896Y-14997412D02*
X14005896Y-14987888D01*
X14005896Y-14987888D02*
X13996372Y-14968841D01*
X13996372Y-14968841D02*
X13977325Y-14959317D01*
X13977325Y-14959317D02*
X13948753Y-14959317D01*
X13948753Y-14959317D02*
X13929706Y-14949793D01*
X13929706Y-14949793D02*
X13920182Y-14930746D01*
X13920182Y-14930746D02*
X13920182Y-14921222D01*
X13920182Y-14921222D02*
X13929706Y-14902174D01*
X13929706Y-14902174D02*
X13948753Y-14892650D01*
X13948753Y-14892650D02*
X13977325Y-14892650D01*
X13977325Y-14892650D02*
X13996372Y-14902174D01*
X14072563Y-15102174D02*
X14082087Y-15092650D01*
X14082087Y-15092650D02*
X14101134Y-15064079D01*
X14101134Y-15064079D02*
X14110658Y-15045031D01*
X14110658Y-15045031D02*
X14120182Y-15016460D01*
X14120182Y-15016460D02*
X14129706Y-14968841D01*
X14129706Y-14968841D02*
X14129706Y-14930746D01*
X14129706Y-14930746D02*
X14120182Y-14883127D01*
X14120182Y-14883127D02*
X14110658Y-14854555D01*
X14110658Y-14854555D02*
X14101134Y-14835508D01*
X14101134Y-14835508D02*
X14082087Y-14806936D01*
X14082087Y-14806936D02*
X14072563Y-14797412D01*
D13*
X9232500Y-15263500D02*
X9297500Y-15198500D01*
X9232500Y-15133500D01*
X9167500Y-15198500D01*
X9232500Y-15263500D01*
D11*
X9663039Y-15289984D02*
X9548753Y-15289984D01*
X9605896Y-15289984D02*
X9605896Y-15089984D01*
X9605896Y-15089984D02*
X9586848Y-15118555D01*
X9586848Y-15118555D02*
X9567801Y-15137603D01*
X9567801Y-15137603D02*
X9548753Y-15147127D01*
X9748753Y-15270936D02*
X9758277Y-15280460D01*
X9758277Y-15280460D02*
X9748753Y-15289984D01*
X9748753Y-15289984D02*
X9739229Y-15280460D01*
X9739229Y-15280460D02*
X9748753Y-15270936D01*
X9748753Y-15270936D02*
X9748753Y-15289984D01*
X9824944Y-15089984D02*
X9948753Y-15089984D01*
X9948753Y-15089984D02*
X9882086Y-15166174D01*
X9882086Y-15166174D02*
X9910658Y-15166174D01*
X9910658Y-15166174D02*
X9929705Y-15175698D01*
X9929705Y-15175698D02*
X9939229Y-15185222D01*
X9939229Y-15185222D02*
X9948753Y-15204269D01*
X9948753Y-15204269D02*
X9948753Y-15251888D01*
X9948753Y-15251888D02*
X9939229Y-15270936D01*
X9939229Y-15270936D02*
X9929705Y-15280460D01*
X9929705Y-15280460D02*
X9910658Y-15289984D01*
X9910658Y-15289984D02*
X9853515Y-15289984D01*
X9853515Y-15289984D02*
X9834467Y-15280460D01*
X9834467Y-15280460D02*
X9824944Y-15270936D01*
X10072563Y-15089984D02*
X10091610Y-15089984D01*
X10091610Y-15089984D02*
X10110658Y-15099508D01*
X10110658Y-15099508D02*
X10120182Y-15109031D01*
X10120182Y-15109031D02*
X10129705Y-15128079D01*
X10129705Y-15128079D02*
X10139229Y-15166174D01*
X10139229Y-15166174D02*
X10139229Y-15213793D01*
X10139229Y-15213793D02*
X10129705Y-15251888D01*
X10129705Y-15251888D02*
X10120182Y-15270936D01*
X10120182Y-15270936D02*
X10110658Y-15280460D01*
X10110658Y-15280460D02*
X10091610Y-15289984D01*
X10091610Y-15289984D02*
X10072563Y-15289984D01*
X10072563Y-15289984D02*
X10053515Y-15280460D01*
X10053515Y-15280460D02*
X10043991Y-15270936D01*
X10043991Y-15270936D02*
X10034467Y-15251888D01*
X10034467Y-15251888D02*
X10024944Y-15213793D01*
X10024944Y-15213793D02*
X10024944Y-15166174D01*
X10024944Y-15166174D02*
X10034467Y-15128079D01*
X10034467Y-15128079D02*
X10043991Y-15109031D01*
X10043991Y-15109031D02*
X10053515Y-15099508D01*
X10053515Y-15099508D02*
X10072563Y-15089984D01*
X10263039Y-15089984D02*
X10282086Y-15089984D01*
X10282086Y-15089984D02*
X10301134Y-15099508D01*
X10301134Y-15099508D02*
X10310658Y-15109031D01*
X10310658Y-15109031D02*
X10320182Y-15128079D01*
X10320182Y-15128079D02*
X10329705Y-15166174D01*
X10329705Y-15166174D02*
X10329705Y-15213793D01*
X10329705Y-15213793D02*
X10320182Y-15251888D01*
X10320182Y-15251888D02*
X10310658Y-15270936D01*
X10310658Y-15270936D02*
X10301134Y-15280460D01*
X10301134Y-15280460D02*
X10282086Y-15289984D01*
X10282086Y-15289984D02*
X10263039Y-15289984D01*
X10263039Y-15289984D02*
X10243991Y-15280460D01*
X10243991Y-15280460D02*
X10234467Y-15270936D01*
X10234467Y-15270936D02*
X10224944Y-15251888D01*
X10224944Y-15251888D02*
X10215420Y-15213793D01*
X10215420Y-15213793D02*
X10215420Y-15166174D01*
X10215420Y-15166174D02*
X10224944Y-15128079D01*
X10224944Y-15128079D02*
X10234467Y-15109031D01*
X10234467Y-15109031D02*
X10243991Y-15099508D01*
X10243991Y-15099508D02*
X10263039Y-15089984D01*
X10415420Y-15289984D02*
X10415420Y-15156650D01*
X10415420Y-15175698D02*
X10424944Y-15166174D01*
X10424944Y-15166174D02*
X10443991Y-15156650D01*
X10443991Y-15156650D02*
X10472563Y-15156650D01*
X10472563Y-15156650D02*
X10491610Y-15166174D01*
X10491610Y-15166174D02*
X10501134Y-15185222D01*
X10501134Y-15185222D02*
X10501134Y-15289984D01*
X10501134Y-15185222D02*
X10510658Y-15166174D01*
X10510658Y-15166174D02*
X10529705Y-15156650D01*
X10529705Y-15156650D02*
X10558277Y-15156650D01*
X10558277Y-15156650D02*
X10577325Y-15166174D01*
X10577325Y-15166174D02*
X10586848Y-15185222D01*
X10586848Y-15185222D02*
X10586848Y-15289984D01*
X10682086Y-15289984D02*
X10682086Y-15156650D01*
X10682086Y-15175698D02*
X10691610Y-15166174D01*
X10691610Y-15166174D02*
X10710658Y-15156650D01*
X10710658Y-15156650D02*
X10739229Y-15156650D01*
X10739229Y-15156650D02*
X10758277Y-15166174D01*
X10758277Y-15166174D02*
X10767801Y-15185222D01*
X10767801Y-15185222D02*
X10767801Y-15289984D01*
X10767801Y-15185222D02*
X10777325Y-15166174D01*
X10777325Y-15166174D02*
X10796372Y-15156650D01*
X10796372Y-15156650D02*
X10824944Y-15156650D01*
X10824944Y-15156650D02*
X10843991Y-15166174D01*
X10843991Y-15166174D02*
X10853515Y-15185222D01*
X10853515Y-15185222D02*
X10853515Y-15289984D01*
X11243991Y-15080460D02*
X11072563Y-15337603D01*
X11501134Y-15089984D02*
X11520182Y-15089984D01*
X11520182Y-15089984D02*
X11539229Y-15099508D01*
X11539229Y-15099508D02*
X11548753Y-15109031D01*
X11548753Y-15109031D02*
X11558277Y-15128079D01*
X11558277Y-15128079D02*
X11567801Y-15166174D01*
X11567801Y-15166174D02*
X11567801Y-15213793D01*
X11567801Y-15213793D02*
X11558277Y-15251888D01*
X11558277Y-15251888D02*
X11548753Y-15270936D01*
X11548753Y-15270936D02*
X11539229Y-15280460D01*
X11539229Y-15280460D02*
X11520182Y-15289984D01*
X11520182Y-15289984D02*
X11501134Y-15289984D01*
X11501134Y-15289984D02*
X11482086Y-15280460D01*
X11482086Y-15280460D02*
X11472563Y-15270936D01*
X11472563Y-15270936D02*
X11463039Y-15251888D01*
X11463039Y-15251888D02*
X11453515Y-15213793D01*
X11453515Y-15213793D02*
X11453515Y-15166174D01*
X11453515Y-15166174D02*
X11463039Y-15128079D01*
X11463039Y-15128079D02*
X11472563Y-15109031D01*
X11472563Y-15109031D02*
X11482086Y-15099508D01*
X11482086Y-15099508D02*
X11501134Y-15089984D01*
X11653515Y-15270936D02*
X11663039Y-15280460D01*
X11663039Y-15280460D02*
X11653515Y-15289984D01*
X11653515Y-15289984D02*
X11643991Y-15280460D01*
X11643991Y-15280460D02*
X11653515Y-15270936D01*
X11653515Y-15270936D02*
X11653515Y-15289984D01*
X11786848Y-15089984D02*
X11805896Y-15089984D01*
X11805896Y-15089984D02*
X11824944Y-15099508D01*
X11824944Y-15099508D02*
X11834467Y-15109031D01*
X11834467Y-15109031D02*
X11843991Y-15128079D01*
X11843991Y-15128079D02*
X11853515Y-15166174D01*
X11853515Y-15166174D02*
X11853515Y-15213793D01*
X11853515Y-15213793D02*
X11843991Y-15251888D01*
X11843991Y-15251888D02*
X11834467Y-15270936D01*
X11834467Y-15270936D02*
X11824944Y-15280460D01*
X11824944Y-15280460D02*
X11805896Y-15289984D01*
X11805896Y-15289984D02*
X11786848Y-15289984D01*
X11786848Y-15289984D02*
X11767801Y-15280460D01*
X11767801Y-15280460D02*
X11758277Y-15270936D01*
X11758277Y-15270936D02*
X11748753Y-15251888D01*
X11748753Y-15251888D02*
X11739229Y-15213793D01*
X11739229Y-15213793D02*
X11739229Y-15166174D01*
X11739229Y-15166174D02*
X11748753Y-15128079D01*
X11748753Y-15128079D02*
X11758277Y-15109031D01*
X11758277Y-15109031D02*
X11767801Y-15099508D01*
X11767801Y-15099508D02*
X11786848Y-15089984D01*
X12034467Y-15089984D02*
X11939229Y-15089984D01*
X11939229Y-15089984D02*
X11929706Y-15185222D01*
X11929706Y-15185222D02*
X11939229Y-15175698D01*
X11939229Y-15175698D02*
X11958277Y-15166174D01*
X11958277Y-15166174D02*
X12005896Y-15166174D01*
X12005896Y-15166174D02*
X12024944Y-15175698D01*
X12024944Y-15175698D02*
X12034467Y-15185222D01*
X12034467Y-15185222D02*
X12043991Y-15204269D01*
X12043991Y-15204269D02*
X12043991Y-15251888D01*
X12043991Y-15251888D02*
X12034467Y-15270936D01*
X12034467Y-15270936D02*
X12024944Y-15280460D01*
X12024944Y-15280460D02*
X12005896Y-15289984D01*
X12005896Y-15289984D02*
X11958277Y-15289984D01*
X11958277Y-15289984D02*
X11939229Y-15280460D01*
X11939229Y-15280460D02*
X11929706Y-15270936D01*
X12234467Y-15289984D02*
X12120182Y-15289984D01*
X12177325Y-15289984D02*
X12177325Y-15089984D01*
X12177325Y-15089984D02*
X12158277Y-15118555D01*
X12158277Y-15118555D02*
X12139229Y-15137603D01*
X12139229Y-15137603D02*
X12120182Y-15147127D01*
X12310658Y-15109031D02*
X12320182Y-15099508D01*
X12320182Y-15099508D02*
X12339229Y-15089984D01*
X12339229Y-15089984D02*
X12386848Y-15089984D01*
X12386848Y-15089984D02*
X12405896Y-15099508D01*
X12405896Y-15099508D02*
X12415420Y-15109031D01*
X12415420Y-15109031D02*
X12424944Y-15128079D01*
X12424944Y-15128079D02*
X12424944Y-15147127D01*
X12424944Y-15147127D02*
X12415420Y-15175698D01*
X12415420Y-15175698D02*
X12301134Y-15289984D01*
X12301134Y-15289984D02*
X12424944Y-15289984D01*
X12501134Y-15089984D02*
X12501134Y-15128079D01*
X12577325Y-15089984D02*
X12577325Y-15128079D01*
X12872563Y-15366174D02*
X12863039Y-15356650D01*
X12863039Y-15356650D02*
X12843991Y-15328079D01*
X12843991Y-15328079D02*
X12834468Y-15309031D01*
X12834468Y-15309031D02*
X12824944Y-15280460D01*
X12824944Y-15280460D02*
X12815420Y-15232841D01*
X12815420Y-15232841D02*
X12815420Y-15194746D01*
X12815420Y-15194746D02*
X12824944Y-15147127D01*
X12824944Y-15147127D02*
X12834468Y-15118555D01*
X12834468Y-15118555D02*
X12843991Y-15099508D01*
X12843991Y-15099508D02*
X12863039Y-15070936D01*
X12863039Y-15070936D02*
X12872563Y-15061412D01*
X12939229Y-15109031D02*
X12948753Y-15099508D01*
X12948753Y-15099508D02*
X12967801Y-15089984D01*
X12967801Y-15089984D02*
X13015420Y-15089984D01*
X13015420Y-15089984D02*
X13034468Y-15099508D01*
X13034468Y-15099508D02*
X13043991Y-15109031D01*
X13043991Y-15109031D02*
X13053515Y-15128079D01*
X13053515Y-15128079D02*
X13053515Y-15147127D01*
X13053515Y-15147127D02*
X13043991Y-15175698D01*
X13043991Y-15175698D02*
X12929706Y-15289984D01*
X12929706Y-15289984D02*
X13053515Y-15289984D01*
X13129706Y-15109031D02*
X13139229Y-15099508D01*
X13139229Y-15099508D02*
X13158277Y-15089984D01*
X13158277Y-15089984D02*
X13205896Y-15089984D01*
X13205896Y-15089984D02*
X13224944Y-15099508D01*
X13224944Y-15099508D02*
X13234468Y-15109031D01*
X13234468Y-15109031D02*
X13243991Y-15128079D01*
X13243991Y-15128079D02*
X13243991Y-15147127D01*
X13243991Y-15147127D02*
X13234468Y-15175698D01*
X13234468Y-15175698D02*
X13120182Y-15289984D01*
X13120182Y-15289984D02*
X13243991Y-15289984D01*
X13482087Y-15289984D02*
X13482087Y-15089984D01*
X13567801Y-15289984D02*
X13567801Y-15185222D01*
X13567801Y-15185222D02*
X13558277Y-15166174D01*
X13558277Y-15166174D02*
X13539230Y-15156650D01*
X13539230Y-15156650D02*
X13510658Y-15156650D01*
X13510658Y-15156650D02*
X13491610Y-15166174D01*
X13491610Y-15166174D02*
X13482087Y-15175698D01*
X13691610Y-15289984D02*
X13672563Y-15280460D01*
X13672563Y-15280460D02*
X13663039Y-15270936D01*
X13663039Y-15270936D02*
X13653515Y-15251888D01*
X13653515Y-15251888D02*
X13653515Y-15194746D01*
X13653515Y-15194746D02*
X13663039Y-15175698D01*
X13663039Y-15175698D02*
X13672563Y-15166174D01*
X13672563Y-15166174D02*
X13691610Y-15156650D01*
X13691610Y-15156650D02*
X13720182Y-15156650D01*
X13720182Y-15156650D02*
X13739230Y-15166174D01*
X13739230Y-15166174D02*
X13748753Y-15175698D01*
X13748753Y-15175698D02*
X13758277Y-15194746D01*
X13758277Y-15194746D02*
X13758277Y-15251888D01*
X13758277Y-15251888D02*
X13748753Y-15270936D01*
X13748753Y-15270936D02*
X13739230Y-15280460D01*
X13739230Y-15280460D02*
X13720182Y-15289984D01*
X13720182Y-15289984D02*
X13691610Y-15289984D01*
X13872563Y-15289984D02*
X13853515Y-15280460D01*
X13853515Y-15280460D02*
X13843991Y-15261412D01*
X13843991Y-15261412D02*
X13843991Y-15089984D01*
X14024944Y-15280460D02*
X14005896Y-15289984D01*
X14005896Y-15289984D02*
X13967801Y-15289984D01*
X13967801Y-15289984D02*
X13948753Y-15280460D01*
X13948753Y-15280460D02*
X13939230Y-15261412D01*
X13939230Y-15261412D02*
X13939230Y-15185222D01*
X13939230Y-15185222D02*
X13948753Y-15166174D01*
X13948753Y-15166174D02*
X13967801Y-15156650D01*
X13967801Y-15156650D02*
X14005896Y-15156650D01*
X14005896Y-15156650D02*
X14024944Y-15166174D01*
X14024944Y-15166174D02*
X14034468Y-15185222D01*
X14034468Y-15185222D02*
X14034468Y-15204269D01*
X14034468Y-15204269D02*
X13939230Y-15223317D01*
X14110658Y-15280460D02*
X14129706Y-15289984D01*
X14129706Y-15289984D02*
X14167801Y-15289984D01*
X14167801Y-15289984D02*
X14186849Y-15280460D01*
X14186849Y-15280460D02*
X14196372Y-15261412D01*
X14196372Y-15261412D02*
X14196372Y-15251888D01*
X14196372Y-15251888D02*
X14186849Y-15232841D01*
X14186849Y-15232841D02*
X14167801Y-15223317D01*
X14167801Y-15223317D02*
X14139230Y-15223317D01*
X14139230Y-15223317D02*
X14120182Y-15213793D01*
X14120182Y-15213793D02*
X14110658Y-15194746D01*
X14110658Y-15194746D02*
X14110658Y-15185222D01*
X14110658Y-15185222D02*
X14120182Y-15166174D01*
X14120182Y-15166174D02*
X14139230Y-15156650D01*
X14139230Y-15156650D02*
X14167801Y-15156650D01*
X14167801Y-15156650D02*
X14186849Y-15166174D01*
X14263039Y-15366174D02*
X14272563Y-15356650D01*
X14272563Y-15356650D02*
X14291611Y-15328079D01*
X14291611Y-15328079D02*
X14301134Y-15309031D01*
X14301134Y-15309031D02*
X14310658Y-15280460D01*
X14310658Y-15280460D02*
X14320182Y-15232841D01*
X14320182Y-15232841D02*
X14320182Y-15194746D01*
X14320182Y-15194746D02*
X14310658Y-15147127D01*
X14310658Y-15147127D02*
X14301134Y-15118555D01*
X14301134Y-15118555D02*
X14291611Y-15099508D01*
X14291611Y-15099508D02*
X14272563Y-15070936D01*
X14272563Y-15070936D02*
X14263039Y-15061412D01*
X9097500Y-15362500D02*
X9297500Y-15562500D01*
X9297500Y-15362500D02*
X9097500Y-15562500D01*
X9297500Y-15462500D02*
G75*
G02*
X9097500Y-15462500I-100000J0D01*
G01*
X9097500Y-15462500D02*
G75*
G02*
X9297500Y-15462500I100000J0D01*
G01*
X9548753Y-15373031D02*
X9558277Y-15363508D01*
X9558277Y-15363508D02*
X9577324Y-15353984D01*
X9577324Y-15353984D02*
X9624944Y-15353984D01*
X9624944Y-15353984D02*
X9643991Y-15363508D01*
X9643991Y-15363508D02*
X9653515Y-15373031D01*
X9653515Y-15373031D02*
X9663039Y-15392079D01*
X9663039Y-15392079D02*
X9663039Y-15411127D01*
X9663039Y-15411127D02*
X9653515Y-15439698D01*
X9653515Y-15439698D02*
X9539229Y-15553984D01*
X9539229Y-15553984D02*
X9663039Y-15553984D01*
X9748753Y-15534936D02*
X9758277Y-15544460D01*
X9758277Y-15544460D02*
X9748753Y-15553984D01*
X9748753Y-15553984D02*
X9739229Y-15544460D01*
X9739229Y-15544460D02*
X9748753Y-15534936D01*
X9748753Y-15534936D02*
X9748753Y-15553984D01*
X9834467Y-15373031D02*
X9843991Y-15363508D01*
X9843991Y-15363508D02*
X9863039Y-15353984D01*
X9863039Y-15353984D02*
X9910658Y-15353984D01*
X9910658Y-15353984D02*
X9929705Y-15363508D01*
X9929705Y-15363508D02*
X9939229Y-15373031D01*
X9939229Y-15373031D02*
X9948753Y-15392079D01*
X9948753Y-15392079D02*
X9948753Y-15411127D01*
X9948753Y-15411127D02*
X9939229Y-15439698D01*
X9939229Y-15439698D02*
X9824944Y-15553984D01*
X9824944Y-15553984D02*
X9948753Y-15553984D01*
X10072563Y-15353984D02*
X10091610Y-15353984D01*
X10091610Y-15353984D02*
X10110658Y-15363508D01*
X10110658Y-15363508D02*
X10120182Y-15373031D01*
X10120182Y-15373031D02*
X10129705Y-15392079D01*
X10129705Y-15392079D02*
X10139229Y-15430174D01*
X10139229Y-15430174D02*
X10139229Y-15477793D01*
X10139229Y-15477793D02*
X10129705Y-15515888D01*
X10129705Y-15515888D02*
X10120182Y-15534936D01*
X10120182Y-15534936D02*
X10110658Y-15544460D01*
X10110658Y-15544460D02*
X10091610Y-15553984D01*
X10091610Y-15553984D02*
X10072563Y-15553984D01*
X10072563Y-15553984D02*
X10053515Y-15544460D01*
X10053515Y-15544460D02*
X10043991Y-15534936D01*
X10043991Y-15534936D02*
X10034467Y-15515888D01*
X10034467Y-15515888D02*
X10024944Y-15477793D01*
X10024944Y-15477793D02*
X10024944Y-15430174D01*
X10024944Y-15430174D02*
X10034467Y-15392079D01*
X10034467Y-15392079D02*
X10043991Y-15373031D01*
X10043991Y-15373031D02*
X10053515Y-15363508D01*
X10053515Y-15363508D02*
X10072563Y-15353984D01*
X10263039Y-15353984D02*
X10282086Y-15353984D01*
X10282086Y-15353984D02*
X10301134Y-15363508D01*
X10301134Y-15363508D02*
X10310658Y-15373031D01*
X10310658Y-15373031D02*
X10320182Y-15392079D01*
X10320182Y-15392079D02*
X10329705Y-15430174D01*
X10329705Y-15430174D02*
X10329705Y-15477793D01*
X10329705Y-15477793D02*
X10320182Y-15515888D01*
X10320182Y-15515888D02*
X10310658Y-15534936D01*
X10310658Y-15534936D02*
X10301134Y-15544460D01*
X10301134Y-15544460D02*
X10282086Y-15553984D01*
X10282086Y-15553984D02*
X10263039Y-15553984D01*
X10263039Y-15553984D02*
X10243991Y-15544460D01*
X10243991Y-15544460D02*
X10234467Y-15534936D01*
X10234467Y-15534936D02*
X10224944Y-15515888D01*
X10224944Y-15515888D02*
X10215420Y-15477793D01*
X10215420Y-15477793D02*
X10215420Y-15430174D01*
X10215420Y-15430174D02*
X10224944Y-15392079D01*
X10224944Y-15392079D02*
X10234467Y-15373031D01*
X10234467Y-15373031D02*
X10243991Y-15363508D01*
X10243991Y-15363508D02*
X10263039Y-15353984D01*
X10415420Y-15553984D02*
X10415420Y-15420650D01*
X10415420Y-15439698D02*
X10424944Y-15430174D01*
X10424944Y-15430174D02*
X10443991Y-15420650D01*
X10443991Y-15420650D02*
X10472563Y-15420650D01*
X10472563Y-15420650D02*
X10491610Y-15430174D01*
X10491610Y-15430174D02*
X10501134Y-15449222D01*
X10501134Y-15449222D02*
X10501134Y-15553984D01*
X10501134Y-15449222D02*
X10510658Y-15430174D01*
X10510658Y-15430174D02*
X10529705Y-15420650D01*
X10529705Y-15420650D02*
X10558277Y-15420650D01*
X10558277Y-15420650D02*
X10577325Y-15430174D01*
X10577325Y-15430174D02*
X10586848Y-15449222D01*
X10586848Y-15449222D02*
X10586848Y-15553984D01*
X10682086Y-15553984D02*
X10682086Y-15420650D01*
X10682086Y-15439698D02*
X10691610Y-15430174D01*
X10691610Y-15430174D02*
X10710658Y-15420650D01*
X10710658Y-15420650D02*
X10739229Y-15420650D01*
X10739229Y-15420650D02*
X10758277Y-15430174D01*
X10758277Y-15430174D02*
X10767801Y-15449222D01*
X10767801Y-15449222D02*
X10767801Y-15553984D01*
X10767801Y-15449222D02*
X10777325Y-15430174D01*
X10777325Y-15430174D02*
X10796372Y-15420650D01*
X10796372Y-15420650D02*
X10824944Y-15420650D01*
X10824944Y-15420650D02*
X10843991Y-15430174D01*
X10843991Y-15430174D02*
X10853515Y-15449222D01*
X10853515Y-15449222D02*
X10853515Y-15553984D01*
X11243991Y-15344460D02*
X11072563Y-15601603D01*
X11501134Y-15353984D02*
X11520182Y-15353984D01*
X11520182Y-15353984D02*
X11539229Y-15363508D01*
X11539229Y-15363508D02*
X11548753Y-15373031D01*
X11548753Y-15373031D02*
X11558277Y-15392079D01*
X11558277Y-15392079D02*
X11567801Y-15430174D01*
X11567801Y-15430174D02*
X11567801Y-15477793D01*
X11567801Y-15477793D02*
X11558277Y-15515888D01*
X11558277Y-15515888D02*
X11548753Y-15534936D01*
X11548753Y-15534936D02*
X11539229Y-15544460D01*
X11539229Y-15544460D02*
X11520182Y-15553984D01*
X11520182Y-15553984D02*
X11501134Y-15553984D01*
X11501134Y-15553984D02*
X11482086Y-15544460D01*
X11482086Y-15544460D02*
X11472563Y-15534936D01*
X11472563Y-15534936D02*
X11463039Y-15515888D01*
X11463039Y-15515888D02*
X11453515Y-15477793D01*
X11453515Y-15477793D02*
X11453515Y-15430174D01*
X11453515Y-15430174D02*
X11463039Y-15392079D01*
X11463039Y-15392079D02*
X11472563Y-15373031D01*
X11472563Y-15373031D02*
X11482086Y-15363508D01*
X11482086Y-15363508D02*
X11501134Y-15353984D01*
X11653515Y-15534936D02*
X11663039Y-15544460D01*
X11663039Y-15544460D02*
X11653515Y-15553984D01*
X11653515Y-15553984D02*
X11643991Y-15544460D01*
X11643991Y-15544460D02*
X11653515Y-15534936D01*
X11653515Y-15534936D02*
X11653515Y-15553984D01*
X11786848Y-15353984D02*
X11805896Y-15353984D01*
X11805896Y-15353984D02*
X11824944Y-15363508D01*
X11824944Y-15363508D02*
X11834467Y-15373031D01*
X11834467Y-15373031D02*
X11843991Y-15392079D01*
X11843991Y-15392079D02*
X11853515Y-15430174D01*
X11853515Y-15430174D02*
X11853515Y-15477793D01*
X11853515Y-15477793D02*
X11843991Y-15515888D01*
X11843991Y-15515888D02*
X11834467Y-15534936D01*
X11834467Y-15534936D02*
X11824944Y-15544460D01*
X11824944Y-15544460D02*
X11805896Y-15553984D01*
X11805896Y-15553984D02*
X11786848Y-15553984D01*
X11786848Y-15553984D02*
X11767801Y-15544460D01*
X11767801Y-15544460D02*
X11758277Y-15534936D01*
X11758277Y-15534936D02*
X11748753Y-15515888D01*
X11748753Y-15515888D02*
X11739229Y-15477793D01*
X11739229Y-15477793D02*
X11739229Y-15430174D01*
X11739229Y-15430174D02*
X11748753Y-15392079D01*
X11748753Y-15392079D02*
X11758277Y-15373031D01*
X11758277Y-15373031D02*
X11767801Y-15363508D01*
X11767801Y-15363508D02*
X11786848Y-15353984D01*
X11967801Y-15439698D02*
X11948753Y-15430174D01*
X11948753Y-15430174D02*
X11939229Y-15420650D01*
X11939229Y-15420650D02*
X11929706Y-15401603D01*
X11929706Y-15401603D02*
X11929706Y-15392079D01*
X11929706Y-15392079D02*
X11939229Y-15373031D01*
X11939229Y-15373031D02*
X11948753Y-15363508D01*
X11948753Y-15363508D02*
X11967801Y-15353984D01*
X11967801Y-15353984D02*
X12005896Y-15353984D01*
X12005896Y-15353984D02*
X12024944Y-15363508D01*
X12024944Y-15363508D02*
X12034467Y-15373031D01*
X12034467Y-15373031D02*
X12043991Y-15392079D01*
X12043991Y-15392079D02*
X12043991Y-15401603D01*
X12043991Y-15401603D02*
X12034467Y-15420650D01*
X12034467Y-15420650D02*
X12024944Y-15430174D01*
X12024944Y-15430174D02*
X12005896Y-15439698D01*
X12005896Y-15439698D02*
X11967801Y-15439698D01*
X11967801Y-15439698D02*
X11948753Y-15449222D01*
X11948753Y-15449222D02*
X11939229Y-15458746D01*
X11939229Y-15458746D02*
X11929706Y-15477793D01*
X11929706Y-15477793D02*
X11929706Y-15515888D01*
X11929706Y-15515888D02*
X11939229Y-15534936D01*
X11939229Y-15534936D02*
X11948753Y-15544460D01*
X11948753Y-15544460D02*
X11967801Y-15553984D01*
X11967801Y-15553984D02*
X12005896Y-15553984D01*
X12005896Y-15553984D02*
X12024944Y-15544460D01*
X12024944Y-15544460D02*
X12034467Y-15534936D01*
X12034467Y-15534936D02*
X12043991Y-15515888D01*
X12043991Y-15515888D02*
X12043991Y-15477793D01*
X12043991Y-15477793D02*
X12034467Y-15458746D01*
X12034467Y-15458746D02*
X12024944Y-15449222D01*
X12024944Y-15449222D02*
X12005896Y-15439698D01*
X12215420Y-15353984D02*
X12177325Y-15353984D01*
X12177325Y-15353984D02*
X12158277Y-15363508D01*
X12158277Y-15363508D02*
X12148753Y-15373031D01*
X12148753Y-15373031D02*
X12129706Y-15401603D01*
X12129706Y-15401603D02*
X12120182Y-15439698D01*
X12120182Y-15439698D02*
X12120182Y-15515888D01*
X12120182Y-15515888D02*
X12129706Y-15534936D01*
X12129706Y-15534936D02*
X12139229Y-15544460D01*
X12139229Y-15544460D02*
X12158277Y-15553984D01*
X12158277Y-15553984D02*
X12196372Y-15553984D01*
X12196372Y-15553984D02*
X12215420Y-15544460D01*
X12215420Y-15544460D02*
X12224944Y-15534936D01*
X12224944Y-15534936D02*
X12234467Y-15515888D01*
X12234467Y-15515888D02*
X12234467Y-15468269D01*
X12234467Y-15468269D02*
X12224944Y-15449222D01*
X12224944Y-15449222D02*
X12215420Y-15439698D01*
X12215420Y-15439698D02*
X12196372Y-15430174D01*
X12196372Y-15430174D02*
X12158277Y-15430174D01*
X12158277Y-15430174D02*
X12139229Y-15439698D01*
X12139229Y-15439698D02*
X12129706Y-15449222D01*
X12129706Y-15449222D02*
X12120182Y-15468269D01*
X12405896Y-15353984D02*
X12367801Y-15353984D01*
X12367801Y-15353984D02*
X12348753Y-15363508D01*
X12348753Y-15363508D02*
X12339229Y-15373031D01*
X12339229Y-15373031D02*
X12320182Y-15401603D01*
X12320182Y-15401603D02*
X12310658Y-15439698D01*
X12310658Y-15439698D02*
X12310658Y-15515888D01*
X12310658Y-15515888D02*
X12320182Y-15534936D01*
X12320182Y-15534936D02*
X12329706Y-15544460D01*
X12329706Y-15544460D02*
X12348753Y-15553984D01*
X12348753Y-15553984D02*
X12386848Y-15553984D01*
X12386848Y-15553984D02*
X12405896Y-15544460D01*
X12405896Y-15544460D02*
X12415420Y-15534936D01*
X12415420Y-15534936D02*
X12424944Y-15515888D01*
X12424944Y-15515888D02*
X12424944Y-15468269D01*
X12424944Y-15468269D02*
X12415420Y-15449222D01*
X12415420Y-15449222D02*
X12405896Y-15439698D01*
X12405896Y-15439698D02*
X12386848Y-15430174D01*
X12386848Y-15430174D02*
X12348753Y-15430174D01*
X12348753Y-15430174D02*
X12329706Y-15439698D01*
X12329706Y-15439698D02*
X12320182Y-15449222D01*
X12320182Y-15449222D02*
X12310658Y-15468269D01*
X12501134Y-15353984D02*
X12501134Y-15392079D01*
X12577325Y-15353984D02*
X12577325Y-15392079D01*
X12872563Y-15630174D02*
X12863039Y-15620650D01*
X12863039Y-15620650D02*
X12843991Y-15592079D01*
X12843991Y-15592079D02*
X12834468Y-15573031D01*
X12834468Y-15573031D02*
X12824944Y-15544460D01*
X12824944Y-15544460D02*
X12815420Y-15496841D01*
X12815420Y-15496841D02*
X12815420Y-15458746D01*
X12815420Y-15458746D02*
X12824944Y-15411127D01*
X12824944Y-15411127D02*
X12834468Y-15382555D01*
X12834468Y-15382555D02*
X12843991Y-15363508D01*
X12843991Y-15363508D02*
X12863039Y-15334936D01*
X12863039Y-15334936D02*
X12872563Y-15325412D01*
X13034468Y-15420650D02*
X13034468Y-15553984D01*
X12986848Y-15344460D02*
X12939229Y-15487317D01*
X12939229Y-15487317D02*
X13063039Y-15487317D01*
X13291610Y-15553984D02*
X13291610Y-15353984D01*
X13377325Y-15553984D02*
X13377325Y-15449222D01*
X13377325Y-15449222D02*
X13367801Y-15430174D01*
X13367801Y-15430174D02*
X13348753Y-15420650D01*
X13348753Y-15420650D02*
X13320182Y-15420650D01*
X13320182Y-15420650D02*
X13301134Y-15430174D01*
X13301134Y-15430174D02*
X13291610Y-15439698D01*
X13501134Y-15553984D02*
X13482087Y-15544460D01*
X13482087Y-15544460D02*
X13472563Y-15534936D01*
X13472563Y-15534936D02*
X13463039Y-15515888D01*
X13463039Y-15515888D02*
X13463039Y-15458746D01*
X13463039Y-15458746D02*
X13472563Y-15439698D01*
X13472563Y-15439698D02*
X13482087Y-15430174D01*
X13482087Y-15430174D02*
X13501134Y-15420650D01*
X13501134Y-15420650D02*
X13529706Y-15420650D01*
X13529706Y-15420650D02*
X13548753Y-15430174D01*
X13548753Y-15430174D02*
X13558277Y-15439698D01*
X13558277Y-15439698D02*
X13567801Y-15458746D01*
X13567801Y-15458746D02*
X13567801Y-15515888D01*
X13567801Y-15515888D02*
X13558277Y-15534936D01*
X13558277Y-15534936D02*
X13548753Y-15544460D01*
X13548753Y-15544460D02*
X13529706Y-15553984D01*
X13529706Y-15553984D02*
X13501134Y-15553984D01*
X13682087Y-15553984D02*
X13663039Y-15544460D01*
X13663039Y-15544460D02*
X13653515Y-15525412D01*
X13653515Y-15525412D02*
X13653515Y-15353984D01*
X13834468Y-15544460D02*
X13815420Y-15553984D01*
X13815420Y-15553984D02*
X13777325Y-15553984D01*
X13777325Y-15553984D02*
X13758277Y-15544460D01*
X13758277Y-15544460D02*
X13748753Y-15525412D01*
X13748753Y-15525412D02*
X13748753Y-15449222D01*
X13748753Y-15449222D02*
X13758277Y-15430174D01*
X13758277Y-15430174D02*
X13777325Y-15420650D01*
X13777325Y-15420650D02*
X13815420Y-15420650D01*
X13815420Y-15420650D02*
X13834468Y-15430174D01*
X13834468Y-15430174D02*
X13843991Y-15449222D01*
X13843991Y-15449222D02*
X13843991Y-15468269D01*
X13843991Y-15468269D02*
X13748753Y-15487317D01*
X13920182Y-15544460D02*
X13939230Y-15553984D01*
X13939230Y-15553984D02*
X13977325Y-15553984D01*
X13977325Y-15553984D02*
X13996372Y-15544460D01*
X13996372Y-15544460D02*
X14005896Y-15525412D01*
X14005896Y-15525412D02*
X14005896Y-15515888D01*
X14005896Y-15515888D02*
X13996372Y-15496841D01*
X13996372Y-15496841D02*
X13977325Y-15487317D01*
X13977325Y-15487317D02*
X13948753Y-15487317D01*
X13948753Y-15487317D02*
X13929706Y-15477793D01*
X13929706Y-15477793D02*
X13920182Y-15458746D01*
X13920182Y-15458746D02*
X13920182Y-15449222D01*
X13920182Y-15449222D02*
X13929706Y-15430174D01*
X13929706Y-15430174D02*
X13948753Y-15420650D01*
X13948753Y-15420650D02*
X13977325Y-15420650D01*
X13977325Y-15420650D02*
X13996372Y-15430174D01*
X14072563Y-15630174D02*
X14082087Y-15620650D01*
X14082087Y-15620650D02*
X14101134Y-15592079D01*
X14101134Y-15592079D02*
X14110658Y-15573031D01*
X14110658Y-15573031D02*
X14120182Y-15544460D01*
X14120182Y-15544460D02*
X14129706Y-15496841D01*
X14129706Y-15496841D02*
X14129706Y-15458746D01*
X14129706Y-15458746D02*
X14120182Y-15411127D01*
X14120182Y-15411127D02*
X14110658Y-15382555D01*
X14110658Y-15382555D02*
X14101134Y-15363508D01*
X14101134Y-15363508D02*
X14082087Y-15334936D01*
X14082087Y-15334936D02*
X14072563Y-15325412D01*
X14434468Y-15630174D02*
X14424944Y-15620650D01*
X14424944Y-15620650D02*
X14405896Y-15592079D01*
X14405896Y-15592079D02*
X14396372Y-15573031D01*
X14396372Y-15573031D02*
X14386849Y-15544460D01*
X14386849Y-15544460D02*
X14377325Y-15496841D01*
X14377325Y-15496841D02*
X14377325Y-15458746D01*
X14377325Y-15458746D02*
X14386849Y-15411127D01*
X14386849Y-15411127D02*
X14396372Y-15382555D01*
X14396372Y-15382555D02*
X14405896Y-15363508D01*
X14405896Y-15363508D02*
X14424944Y-15334936D01*
X14424944Y-15334936D02*
X14434468Y-15325412D01*
X14510658Y-15420650D02*
X14510658Y-15553984D01*
X14510658Y-15439698D02*
X14520182Y-15430174D01*
X14520182Y-15430174D02*
X14539230Y-15420650D01*
X14539230Y-15420650D02*
X14567801Y-15420650D01*
X14567801Y-15420650D02*
X14586849Y-15430174D01*
X14586849Y-15430174D02*
X14596372Y-15449222D01*
X14596372Y-15449222D02*
X14596372Y-15553984D01*
X14720182Y-15553984D02*
X14701134Y-15544460D01*
X14701134Y-15544460D02*
X14691611Y-15534936D01*
X14691611Y-15534936D02*
X14682087Y-15515888D01*
X14682087Y-15515888D02*
X14682087Y-15458746D01*
X14682087Y-15458746D02*
X14691611Y-15439698D01*
X14691611Y-15439698D02*
X14701134Y-15430174D01*
X14701134Y-15430174D02*
X14720182Y-15420650D01*
X14720182Y-15420650D02*
X14748753Y-15420650D01*
X14748753Y-15420650D02*
X14767801Y-15430174D01*
X14767801Y-15430174D02*
X14777325Y-15439698D01*
X14777325Y-15439698D02*
X14786849Y-15458746D01*
X14786849Y-15458746D02*
X14786849Y-15515888D01*
X14786849Y-15515888D02*
X14777325Y-15534936D01*
X14777325Y-15534936D02*
X14767801Y-15544460D01*
X14767801Y-15544460D02*
X14748753Y-15553984D01*
X14748753Y-15553984D02*
X14720182Y-15553984D01*
X14843992Y-15420650D02*
X14920182Y-15420650D01*
X14872563Y-15353984D02*
X14872563Y-15525412D01*
X14872563Y-15525412D02*
X14882087Y-15544460D01*
X14882087Y-15544460D02*
X14901134Y-15553984D01*
X14901134Y-15553984D02*
X14920182Y-15553984D01*
X15139230Y-15420650D02*
X15139230Y-15620650D01*
X15139230Y-15430174D02*
X15158277Y-15420650D01*
X15158277Y-15420650D02*
X15196373Y-15420650D01*
X15196373Y-15420650D02*
X15215420Y-15430174D01*
X15215420Y-15430174D02*
X15224944Y-15439698D01*
X15224944Y-15439698D02*
X15234468Y-15458746D01*
X15234468Y-15458746D02*
X15234468Y-15515888D01*
X15234468Y-15515888D02*
X15224944Y-15534936D01*
X15224944Y-15534936D02*
X15215420Y-15544460D01*
X15215420Y-15544460D02*
X15196373Y-15553984D01*
X15196373Y-15553984D02*
X15158277Y-15553984D01*
X15158277Y-15553984D02*
X15139230Y-15544460D01*
X15348753Y-15553984D02*
X15329706Y-15544460D01*
X15329706Y-15544460D02*
X15320182Y-15525412D01*
X15320182Y-15525412D02*
X15320182Y-15353984D01*
X15510658Y-15553984D02*
X15510658Y-15449222D01*
X15510658Y-15449222D02*
X15501134Y-15430174D01*
X15501134Y-15430174D02*
X15482087Y-15420650D01*
X15482087Y-15420650D02*
X15443992Y-15420650D01*
X15443992Y-15420650D02*
X15424944Y-15430174D01*
X15510658Y-15544460D02*
X15491611Y-15553984D01*
X15491611Y-15553984D02*
X15443992Y-15553984D01*
X15443992Y-15553984D02*
X15424944Y-15544460D01*
X15424944Y-15544460D02*
X15415420Y-15525412D01*
X15415420Y-15525412D02*
X15415420Y-15506365D01*
X15415420Y-15506365D02*
X15424944Y-15487317D01*
X15424944Y-15487317D02*
X15443992Y-15477793D01*
X15443992Y-15477793D02*
X15491611Y-15477793D01*
X15491611Y-15477793D02*
X15510658Y-15468269D01*
X15577325Y-15420650D02*
X15653515Y-15420650D01*
X15605896Y-15353984D02*
X15605896Y-15525412D01*
X15605896Y-15525412D02*
X15615420Y-15544460D01*
X15615420Y-15544460D02*
X15634468Y-15553984D01*
X15634468Y-15553984D02*
X15653515Y-15553984D01*
X15796373Y-15544460D02*
X15777325Y-15553984D01*
X15777325Y-15553984D02*
X15739230Y-15553984D01*
X15739230Y-15553984D02*
X15720182Y-15544460D01*
X15720182Y-15544460D02*
X15710658Y-15525412D01*
X15710658Y-15525412D02*
X15710658Y-15449222D01*
X15710658Y-15449222D02*
X15720182Y-15430174D01*
X15720182Y-15430174D02*
X15739230Y-15420650D01*
X15739230Y-15420650D02*
X15777325Y-15420650D01*
X15777325Y-15420650D02*
X15796373Y-15430174D01*
X15796373Y-15430174D02*
X15805896Y-15449222D01*
X15805896Y-15449222D02*
X15805896Y-15468269D01*
X15805896Y-15468269D02*
X15710658Y-15487317D01*
X15977325Y-15553984D02*
X15977325Y-15353984D01*
X15977325Y-15544460D02*
X15958277Y-15553984D01*
X15958277Y-15553984D02*
X15920182Y-15553984D01*
X15920182Y-15553984D02*
X15901134Y-15544460D01*
X15901134Y-15544460D02*
X15891611Y-15534936D01*
X15891611Y-15534936D02*
X15882087Y-15515888D01*
X15882087Y-15515888D02*
X15882087Y-15458746D01*
X15882087Y-15458746D02*
X15891611Y-15439698D01*
X15891611Y-15439698D02*
X15901134Y-15430174D01*
X15901134Y-15430174D02*
X15920182Y-15420650D01*
X15920182Y-15420650D02*
X15958277Y-15420650D01*
X15958277Y-15420650D02*
X15977325Y-15430174D01*
X16053515Y-15630174D02*
X16063039Y-15620650D01*
X16063039Y-15620650D02*
X16082087Y-15592079D01*
X16082087Y-15592079D02*
X16091611Y-15573031D01*
X16091611Y-15573031D02*
X16101134Y-15544460D01*
X16101134Y-15544460D02*
X16110658Y-15496841D01*
X16110658Y-15496841D02*
X16110658Y-15458746D01*
X16110658Y-15458746D02*
X16101134Y-15411127D01*
X16101134Y-15411127D02*
X16091611Y-15382555D01*
X16091611Y-15382555D02*
X16082087Y-15363508D01*
X16082087Y-15363508D02*
X16063039Y-15334936D01*
X16063039Y-15334936D02*
X16053515Y-15325412D01*
M02*
